<svg class="svg-standalone-icon" viewBox="198.929 158.929 152.141 152.141"><g data-paper-data="{&quot;isIcon&quot;:&quot;true&quot;,&quot;iconType&quot;:&quot;icon&quot;,&quot;rawIconId&quot;:&quot;be54bb8b-99c8-40f7-a323-fa5294e730b4&quot;,&quot;selectedEffects&quot;:{&quot;container&quot;:&quot;circle_simple_outline3&quot;,&quot;transformation&quot;:&quot;&quot;,&quot;pattern&quot;:&quot;&quot;},&quot;isDetailed&quot;:false,&quot;fillRule&quot;:&quot;nonzero&quot;,&quot;blockLetter&quot;:&quot;O&quot;,&quot;blockLetterId&quot;:0,&quot;relativeBoundsIconToContainer&quot;:{&quot;top&quot;:-0.0000017720831141190584,&quot;left&quot;:-0.000001546387019098449},&quot;widthRatioIconToContainer&quot;:0.8264596649137073,&quot;heightRatioIconToContainer&quot;:0.8264588472780857,&quot;bounds&quot;:{&quot;x&quot;:198.92945028570753,&quot;y&quot;:158.92945028570753,&quot;width&quot;:152.1414493539883,&quot;height&quot;:152.14147978228434},&quot;iconStyle&quot;:&quot;standalone&quot;,&quot;suitableAsStandaloneIcon&quot;:true}"><path d="M219.136 235c0-30.853 25.011-55.864 55.864-55.864 30.853 0 55.864 25.011 55.864 55.864 0 30.853-25.011 55.864-55.864 55.864-30.853 0-55.864-25.011-55.864-55.864zm40.107-38.085c4.079-1.543 8.378-2.535 13.008-2.645v-8.82c-19.512.662-36.159 12.458-43.655 29.324h9.811c2.977-5.18 7.166-9.7 12.017-13.118v77.168c2.756 1.544 5.732 2.756 8.819 3.638zm18.876-11.465v97.012c2.913-.108 5.827-.431 8.633-1.079v-28.812l29.675-17.05a40.335 40.335 0 0 1-15.431 30l6.15 6.15c10.9-8.957 17.914-22.553 17.914-37.66 0-23.31-16.402-42.841-38.308-47.481-2.806-.648-5.72-.972-8.633-1.08zm37.445 40.467-28.812 16.726v-47.265c14.568 3.885 25.79 15.647 28.812 30.539zm22.294 10.322-.015.628-.02.628-.028.627-.033.628-.04.627-.045.627-.052.626-.058.626-.064.626-.07.624-.077.624-.084.624-.09.622-.095.622-.102.62-.109.62-.114.618-.121.618-.127.616-.134.614-.14.614-.146.611-.152.61-.159.61-.165.606-.17.606-.178.603-.183.602-.19.6-.194.597-.202.596-.207.593-.213.592-.219.59-.225.586-.23.585-.236.582-.242.58-.143.335-.25.573-.256.573-.262.572-.267.568-.273.566-.28.564-.284.56-.29.558-.296.555-.301.552-.307.549-.312.545-.318.543-.324.54-.329.535-.334.533-.34.53-.345.525-.35.522-.356.519-.361.515-.366.511-.372.508-.376.503-.382.5-.386.496-.392.492-.397.488-.4.484-.407.48-.41.476-.416.472-.42.468-.425.463-.429.459-.433.455-.438.45-.442.447-.257.255-.446.438-.453.435-.458.431-.46.427-.466.422-.47.417-.474.413-.478.408-.482.404-.487.398-.49.394-.494.389-.498.384-.502.378-.506.374-.51.369-.513.363-.517.358-.52.353-.525.348-.527.342-.531.337-.535.331-.538.326-.541.32-.544.315-.548.31-.55.304-.554.298-.556.292-.56.288-.562.281-.565.276-.567.27-.57.265-.573.259-.575.253-.577.248-.571.238-.582.236-.585.23-.587.226-.589.219-.59.213-.594.208-.596.2-.598.196-.6.19-.6.183-.604.178-.605.17-.607.166-.609.159-.61.152-.612.147-.613.14-.615.133-.616.128-.617.121-.618.115-.62.109-.62.102-.622.096-.622.09-.624.083-.624.077-.624.071-.626.065-.626.058-.627.052-.626.046-.628.04-.627.033-.628.027-.628.021-.628.016-.628.008-.628.003-.618-.002-.628-.01-.628-.014-.628-.02-.627-.028-.628-.033-.627-.04-.627-.045-.626-.052-.626-.058-.626-.064-.624-.07-.624-.077-.624-.084-.622-.09-.622-.095-.62-.102-.62-.108-.618-.115-.618-.12-.616-.128-.614-.134-.614-.14-.611-.146-.61-.152-.61-.159-.606-.164-.606-.171-.603-.178-.602-.183-.6-.189-.597-.195-.596-.201-.593-.208-.592-.213-.59-.219-.586-.224-.585-.231-.582-.236-.58-.242-.334-.142-.574-.25-.573-.256-.571-.262-.57-.268-.565-.273-.563-.279-.561-.284-.558-.29-.555-.296-.551-.302-.55-.307-.545-.312-.543-.318-.539-.323-.536-.33-.533-.334-.529-.34-.526-.344-.522-.351-.519-.356-.515-.36-.511-.367-.507-.372-.504-.376-.5-.382-.496-.386-.492-.392-.488-.396-.484-.402-.48-.405-.476-.411-.472-.416-.467-.42-.464-.424-.459-.43-.454-.433-.451-.437-.446-.442-.257-.258-.437-.446-.435-.453-.431-.457-.427-.462-.422-.465-.417-.47-.413-.474-.408-.478-.403-.482-.4-.487-.393-.49-.389-.494-.383-.498-.38-.502-.373-.506-.368-.51-.364-.513-.358-.517-.353-.52-.347-.524-.343-.528-.336-.531-.332-.535-.326-.538-.32-.541-.315-.544-.31-.548-.303-.55-.299-.554-.292-.556-.287-.56-.282-.562-.276-.565-.27-.567-.264-.57-.26-.573-.253-.575-.247-.577-.238-.571-.237-.582-.23-.585-.226-.587-.219-.589-.213-.59-.207-.594-.202-.596-.195-.598-.19-.6-.183-.6-.178-.604-.17-.605-.166-.607-.159-.609-.152-.61-.146-.612-.14-.613-.134-.615-.128-.616-.121-.617-.115-.618-.109-.62-.102-.62-.096-.622-.09-.622-.083-.624-.077-.624-.071-.624-.065-.626-.058-.626-.052-.626-.046-.627-.04-.628-.033-.627-.027-.628-.021-.628-.015-.628-.01-.628-.003-.628.003-.618.01-.628.014-.628.02-.627.028-.628.033-.628.04-.627.045-.627.052-.626.058-.626.064-.626.07-.624.078-.624.083-.624.09-.622.095-.622.102-.62.108-.62.115-.618.121-.618.127-.616.134-.614.14-.613.146-.612.152-.61.159-.61.165-.606.17-.605.178-.604.183-.602.189-.6.195-.597.201-.596.208-.593.213-.592.219-.59.224-.586.23-.585.237-.582.242-.58.142-.334.25-.573.256-.574.262-.571.268-.569.273-.566.279-.563.285-.56.29-.559.295-.555.302-.551.307-.55.312-.545.318-.543.324-.539.328-.536.335-.533.34-.529.345-.526.35-.522.356-.519.361-.515.366-.51.372-.508.376-.504.382-.5.386-.496.392-.492.396-.488.402-.484.406-.48.41-.476.416-.472.42-.467.424-.463.43-.46.433-.454.437-.451.442-.446.258-.256.446-.438.453-.435.457-.431.462-.426.465-.423.47-.417.474-.413.478-.408.482-.403.487-.399.49-.394.494-.388.498-.384.502-.379.506-.374.51-.368.513-.364.517-.358.52-.353.524-.347.528-.342.531-.337.535-.332.538-.326.54-.32.545-.315.548-.31.55-.303.554-.299.556-.292.56-.287.562-.282.565-.276.567-.27.57-.264.573-.26.575-.252.577-.248.571-.238.582-.237.585-.23.587-.225.589-.22.591-.213.593-.207.596-.202.598-.195.6-.19.6-.183.604-.177.605-.172.607-.165.609-.158.61-.153.612-.146.613-.14.615-.134.616-.128.617-.121.618-.115.62-.109.62-.102.622-.096.622-.09.624-.083.624-.077.625-.071.625-.065.626-.058.627-.052.626-.046.628-.04.627-.033.628-.027.628-.021.628-.015.628-.01.628-.002.618.002.628.01.628.014.627.021.628.027.628.033.627.04.627.045.626.052.626.058.626.064.624.07.624.078.624.083.622.09.622.095.62.102.62.108.618.115.618.121.616.127.614.134.614.14.611.146.61.152.61.159.606.165.605.17.604.178.602.183.6.189.597.195.596.202.593.207.592.213.589.219.587.225.585.23.582.236.58.242.334.142.574.25.573.256.571.262.569.268.566.273.563.28.561.284.558.29.555.295.551.302.55.307.545.312.543.318.539.324.536.329.533.334.529.34.526.345.522.35.519.356.514.361.512.366.507.372.504.376.5.382.496.387.492.391.488.396.484.402.48.406.476.41.472.416.467.42.463.425.46.429.454.433.451.438.446.442.256.257.438.446.435.453.431.458.427.46.421.467.418.47.413.473.408.478.403.482.399.487.393.49.39.494.383.498.379.502.374.506.368.51.364.513.358.517.353.52.347.525.342.527.337.532.332.534.326.538.32.541.315.544.31.548.303.55.298.554.293.556.287.56.282.562.275.565.27.567.265.57.26.573.252.575.248.578.238.57.236.582.231.585.225.587.22.589.213.591.207.594.202.595.195.598.19.6.183.6.178.604.17.605.166.607.158.609.153.61.146.612.14.613.134.615.128.616.121.617.115.618.109.62.102.62.096.622.09.622.083.624.077.624.071.625.064.625.059.626.052.626.046.627.04.628.033.627.027.628.021.628.015.628.01.628.002.628v.014l-.002.604zm-2.941-1.832-.008-.6-.015-.599-.02-.6-.026-.598-.031-.599-.038-.598-.044-.598-.049-.597-.056-.597-.06-.596-.068-.595-.073-.594-.08-.594-.085-.593-.091-.592-.097-.591-.104-.59-.11-.589-.115-.587-.12-.587-.128-.585-.133-.584-.14-.582-.145-.581-.15-.58-.158-.578-.163-.576-.168-.575-.175-.573-.18-.571-.186-.57-.192-.568-.198-.565-.203-.564-.21-.562-.213-.56-.22-.557-.226-.556-.227-.544-.236-.551-.242-.549-.247-.546-.252-.544-.257-.541-.263-.539-.268-.536-.273-.533-.28-.53-.283-.527-.29-.525-.294-.522-.3-.518-.305-.516-.31-.512-.316-.51-.32-.505-.326-.503-.331-.499-.336-.496-.341-.492-.346-.49-.351-.485-.356-.481-.36-.479-.366-.474-.37-.471-.375-.467-.38-.464-.385-.46-.389-.456-.393-.452-.398-.448-.403-.444-.407-.44-.41-.437-.416-.432-.422-.431-.24-.242-.426-.422-.43-.418-.434-.413-.438-.41-.442-.405-.446-.4-.45-.397-.453-.391-.458-.388-.46-.382-.466-.378-.468-.373-.473-.369-.476-.363-.48-.359-.483-.354-.487-.349-.49-.344-.494-.339-.497-.333-.5-.33-.505-.323-.507-.318-.51-.314-.514-.308-.517-.303-.52-.298-.522-.292-.526-.288-.529-.282-.531-.276-.535-.272-.537-.266-.54-.26-.542-.256-.544-.25-.548-.244-.552-.241-.313-.134-.554-.23-.555-.226-.558-.22-.56-.214-.561-.21-.564-.202-.565-.198-.568-.192-.57-.186-.57-.18-.574-.175-.574-.169-.577-.163-.577-.157-.58-.15-.581-.146-.582-.14-.584-.133-.586-.127-.586-.121-.588-.116-.588-.109-.59-.103-.591-.098-.592-.091-.593-.085-.594-.08-.595-.073-.595-.067-.596-.062-.597-.055-.597-.05-.598-.043-.598-.038-.599-.032-.599-.026-.6-.02-.599-.014-.6-.009-.59-.003-.6.003-.6.009-.599.014-.6.02-.598.026-.599.032-.598.037-.597.044-.598.05-.596.055-.596.06-.596.068-.594.074-.594.079-.593.085-.592.091-.59.098-.59.103-.59.11-.587.115-.587.12-.585.128-.584.133-.582.14-.581.145-.58.15-.578.158-.576.163-.575.168-.573.175-.571.18-.57.186-.567.192-.566.198-.564.203-.562.209-.56.214-.557.22-.556.226-.544.227-.551.236-.549.242-.546.246-.544.253-.541.257-.539.263-.536.268-.533.273-.53.28-.527.283-.525.29-.522.294-.518.3-.516.305-.512.31-.51.316-.505.32-.503.326-.499.331-.496.336-.492.341-.49.346-.485.35-.481.357-.479.36-.474.366-.471.37-.467.375-.464.38-.46.385-.455.389-.453.393-.448.398-.444.403-.44.407-.437.41-.432.416-.43.422-.243.24-.422.426-.418.43-.413.434-.41.438-.405.442-.4.446-.397.45-.391.453-.388.458-.382.46-.378.466-.373.469-.368.472-.364.476-.359.48-.354.483-.349.487-.343.49-.34.494-.333.497-.33.5-.323.505-.318.507-.314.51-.308.514-.303.517-.298.52-.292.522-.287.526-.282.529-.277.531-.271.535-.266.537-.261.54-.256.542-.25.544-.244.548-.24.552-.134.314-.231.553-.226.555-.22.558-.214.56-.21.561-.202.564-.198.566-.192.567-.186.57-.18.57-.175.574-.169.574-.163.577-.157.578-.15.58-.146.58-.14.583-.133.584-.127.585-.121.586-.116.588-.109.589-.103.59-.098.59-.091.593-.085.593-.08.593-.073.595-.067.595-.062.596-.055.597-.05.597-.043.598-.038.598-.032.599-.026.599-.02.6-.014.6-.009.599-.003.59.003.6.009.6.014.599.02.6.026.598.032.599.037.598.044.598.05.597.055.597.061.595.067.596.074.595.079.593.085.593.091.592.098.59.103.59.11.59.115.588.121.586.127.585.133.584.14.583.145.58.15.58.158.578.163.576.168.575.175.573.18.571.187.57.191.568.198.565.203.564.209.562.214.56.22.557.226.556.227.544.236.551.242.55.246.545.253.544.257.541.263.539.268.536.274.533.278.53.284.528.29.524.294.522.3.518.305.516.31.512.316.51.32.505.326.503.331.499.336.496.341.492.346.49.35.485.357.481.36.479.366.474.37.471.375.467.38.464.385.46.389.456.393.452.398.448.403.444.407.44.41.437.416.433.422.43.24.242.426.422.43.418.435.414.438.409.441.405.446.4.45.397.453.392.458.387.461.382.465.378.469.373.472.369.476.363.48.36.483.353.487.349.49.344.494.339.497.333.5.33.505.323.507.319.51.313.514.308.517.303.52.298.522.293.526.287.529.282.531.276.535.272.537.266.54.26.542.256.544.25.548.245.552.24.314.134.553.23.555.226.558.22.56.214.561.21.564.202.566.198.567.192.57.186.57.18.574.175.574.169.577.163.578.157.58.15.58.146.583.14.584.133.585.127.586.121.588.116.589.11.59.102.59.098.593.091.593.085.593.08.595.073.595.068.596.061.597.055.597.05.598.043.599.038.598.032.6.026.599.02.599.014.6.009.59.003.6-.003.6-.009.599-.014.6-.02.598-.026.599-.032.598-.037.598-.044.597-.05.597-.055.596-.061.595-.067.595-.074.593-.079.593-.085.592-.092.591-.097.59-.103.589-.11.588-.115.586-.121.585-.127.584-.133.583-.14.58-.145.58-.15.578-.158.576-.163.575-.168.573-.175.572-.18.569-.187.568-.191.565-.198.564-.203.562-.209.56-.214.557-.22.556-.226.544-.227.551-.236.55-.242.545-.246.544-.253.541-.257.539-.263.536-.268.533-.273.53-.279.528-.284.524-.29.522-.294.518-.3.516-.305.512-.31.51-.316.505-.32.503-.326.499-.331.496-.336.492-.341.49-.346.485-.35.482-.357.478-.36.474-.366.471-.37.468-.375.463-.38.46-.384.456-.39.452-.393.448-.398.444-.403.44-.407.437-.41.432-.416.431-.422.242-.24.422-.426.418-.43.413-.434.41-.438.405-.442.4-.446.397-.45.391-.453.388-.458.382-.46.378-.466.373-.468.368-.473.364-.476.359-.48.354-.483.349-.487.344-.49.339-.494.333-.497.33-.5.323-.505.319-.507.313-.51.308-.514.303-.516.298-.52.292-.523.288-.526.281-.529.277-.531.272-.534.266-.538.26-.539.255-.542.25-.545.245-.548.24-.552.135-.313.23-.554.226-.555.22-.558.214-.56.21-.561.203-.564.197-.566.192-.567.186-.57.18-.57.175-.574.169-.575.163-.576.157-.578.151-.58.145-.58.14-.583.133-.583.127-.586.121-.586.116-.588.109-.589.104-.59.097-.59.091-.593.086-.593.079-.593.073-.595.068-.595.061-.596.055-.597.05-.597.043-.598.038-.598.032-.599.026-.599.02-.6.015-.599.008-.6.003-.59v-.014zM221.21 181.21c7.018-7.018 15.078-12.452 24.18-16.301 9.423-3.986 19.294-5.98 29.61-5.98 10.317 0 20.187 1.994 29.611 5.98 9.102 3.85 17.161 9.283 24.18 16.301 7.017 7.018 12.451 15.078 16.3 24.18 3.987 9.423 5.98 19.294 5.98 29.61 0 10.317-1.993 20.187-5.98 29.611-3.849 9.101-9.282 17.161-16.3 24.18-7.019 7.017-15.078 12.451-24.18 16.3-9.424 3.987-19.294 5.98-29.61 5.98-10.317 0-20.187-1.993-29.612-5.98-9.101-3.849-17.16-9.282-24.179-16.3-7.018-7.019-12.452-15.078-16.301-24.18-3.986-9.424-5.98-19.294-5.98-29.61 0-10.317 1.994-20.188 5.98-29.612 3.85-9.101 9.283-17.16 16.301-24.179zm4.138 103.443c6.48 6.48 13.92 11.496 22.32 15.05 8.696 3.677 17.807 5.516 27.332 5.516 9.525 0 18.636-1.839 27.332-5.517 8.4-3.553 15.84-8.57 22.32-15.05s11.497-13.92 15.05-22.32c3.678-8.696 5.517-17.806 5.517-27.332 0-9.525-1.839-18.636-5.517-27.331-3.553-8.4-8.57-15.841-15.05-22.321-6.48-6.48-13.92-11.497-22.32-15.05-8.696-3.678-17.807-5.517-27.332-5.517-9.525 0-18.636 1.84-27.331 5.517-8.401 3.553-15.841 8.57-22.321 15.05-6.48 6.48-11.497 13.92-15.05 22.32-3.678 8.696-5.517 17.807-5.517 27.332 0 9.525 1.839 18.636 5.517 27.332 3.553 8.4 8.57 15.84 15.05 22.32z" data-paper-data="{&quot;isPathIcon&quot;:true}" style="fill:#5a97f7"/></g></svg>