<svg xmlns:mydata="http://www.w3.org/2000/svg" mydata:contrastcolor="5a97f75a97f7" mydata:template="Default" mydata:presentation="2.5" mydata:layouttype="undefined" mydata:specialfontid="undefined" mydata:id1="882" mydata:id2="882" mydata:companyname="trenzinho acadêmico" xmlns="http://www.w3.org/2000/svg" viewBox="146 106 258 258" class="watermark-logo"><g data-paper-data="{&quot;isGlobalGroup&quot;:true,&quot;bounds&quot;:{&quot;x&quot;:146,&quot;y&quot;:106,&quot;width&quot;:258,&quot;height&quot;:258}}" fill="#5a97f7" fill-rule="none" stroke-miterlimit="10" font-family="none" font-weight="none" font-size="none" text-anchor="none" style="mix-blend-mode:normal"><g data-paper-data="{&quot;isIcon&quot;:&quot;true&quot;,&quot;iconType&quot;:&quot;icon&quot;,&quot;rawIconId&quot;:&quot;be54bb8b-99c8-40f7-a323-fa5294e730b4&quot;,&quot;selectedEffects&quot;:{&quot;container&quot;:&quot;circle_simple_outline3&quot;,&quot;transformation&quot;:&quot;&quot;,&quot;pattern&quot;:&quot;&quot;},&quot;isDetailed&quot;:false,&quot;fillRule&quot;:&quot;nonzero&quot;,&quot;blockLetter&quot;:&quot;O&quot;,&quot;blockLetterId&quot;:0,&quot;relativeBoundsIconToContainer&quot;:{&quot;top&quot;:-0.0000017720831141190584,&quot;left&quot;:-0.000001546387019098449},&quot;widthRatioIconToContainer&quot;:0.8264596649137073,&quot;heightRatioIconToContainer&quot;:0.8264588472780857,&quot;bounds&quot;:{&quot;x&quot;:198.92945028570753,&quot;y&quot;:158.92945028570753,&quot;width&quot;:152.1414493539883,&quot;height&quot;:152.14147978228434},&quot;iconStyle&quot;:&quot;standalone&quot;,&quot;suitableAsStandaloneIcon&quot;:true}" fill-rule="nonzero"><path d="M219.136 235c0-30.853 25.011-55.864 55.864-55.864 30.853 0 55.864 25.011 55.864 55.864 0 30.853-25.011 55.864-55.864 55.864-30.853 0-55.864-25.011-55.864-55.864zm40.107-38.085c4.079-1.543 8.378-2.535 13.008-2.645v-8.82c-19.512.662-36.159 12.458-43.655 29.324h9.811c2.977-5.18 7.166-9.7 12.017-13.118v77.168c2.756 1.544 5.732 2.756 8.819 3.638zm18.876-11.465v97.012c2.913-.108 5.827-.431 8.633-1.079v-28.812l29.675-17.05a40.335 40.335 0 0 1-15.431 30l6.15 6.15c10.9-8.957 17.914-22.553 17.914-37.66 0-23.31-16.402-42.841-38.308-47.481-2.806-.648-5.72-.972-8.633-1.08zm37.445 40.467-28.812 16.726v-47.265c14.568 3.885 25.79 15.647 28.812 30.539zm22.294 10.322-.015.628-.02.628-.028.627-.033.628-.04.627-.045.627-.052.626-.058.626-.064.626-.07.624-.077.624-.084.624-.09.622-.095.622-.102.62-.109.62-.114.618-.121.618-.127.616-.134.614-.14.614-.146.611-.152.61-.159.61-.165.606-.17.606-.178.603-.183.602-.19.6-.194.597-.202.596-.207.593-.213.592-.219.59-.225.586-.23.585-.236.582-.242.58-.143.335-.25.573-.256.573-.262.572-.267.568-.273.566-.28.564-.284.56-.29.558-.296.555-.301.552-.307.549-.312.545-.318.543-.324.54-.329.535-.334.533-.34.53-.345.525-.35.522-.356.519-.361.515-.366.511-.372.508-.376.503-.382.5-.386.496-.392.492-.397.488-.4.484-.407.48-.41.476-.416.472-.42.468-.425.463-.429.459-.433.455-.438.45-.442.447-.257.255-.446.438-.453.435-.458.431-.46.427-.466.422-.47.417-.474.413-.478.408-.482.404-.487.398-.49.394-.494.389-.498.384-.502.378-.506.374-.51.369-.513.363-.517.358-.52.353-.525.348-.527.342-.531.337-.535.331-.538.326-.541.32-.544.315-.548.31-.55.304-.554.298-.556.292-.56.288-.562.281-.565.276-.567.27-.57.265-.573.259-.575.253-.577.248-.571.238-.582.236-.585.23-.587.226-.589.219-.59.213-.594.208-.596.2-.598.196-.6.19-.6.183-.604.178-.605.17-.607.166-.609.159-.61.152-.612.147-.613.14-.615.133-.616.128-.617.121-.618.115-.62.109-.62.102-.622.096-.622.09-.624.083-.624.077-.624.071-.626.065-.626.058-.627.052-.626.046-.628.04-.627.033-.628.027-.628.021-.628.016-.628.008-.628.003-.618-.002-.628-.01-.628-.014-.628-.02-.627-.028-.628-.033-.627-.04-.627-.045-.626-.052-.626-.058-.626-.064-.624-.07-.624-.077-.624-.084-.622-.09-.622-.095-.62-.102-.62-.108-.618-.115-.618-.12-.616-.128-.614-.134-.614-.14-.611-.146-.61-.152-.61-.159-.606-.164-.606-.171-.603-.178-.602-.183-.6-.189-.597-.195-.596-.201-.593-.208-.592-.213-.59-.219-.586-.224-.585-.231-.582-.236-.58-.242-.334-.142-.574-.25-.573-.256-.571-.262-.57-.268-.565-.273-.563-.279-.561-.284-.558-.29-.555-.296-.551-.302-.55-.307-.545-.312-.543-.318-.539-.323-.536-.33-.533-.334-.529-.34-.526-.344-.522-.351-.519-.356-.515-.36-.511-.367-.507-.372-.504-.376-.5-.382-.496-.386-.492-.392-.488-.396-.484-.402-.48-.405-.476-.411-.472-.416-.467-.42-.464-.424-.459-.43-.454-.433-.451-.437-.446-.442-.257-.258-.437-.446-.435-.453-.431-.457-.427-.462-.422-.465-.417-.47-.413-.474-.408-.478-.403-.482-.4-.487-.393-.49-.389-.494-.383-.498-.38-.502-.373-.506-.368-.51-.364-.513-.358-.517-.353-.52-.347-.524-.343-.528-.336-.531-.332-.535-.326-.538-.32-.541-.315-.544-.31-.548-.303-.55-.299-.554-.292-.556-.287-.56-.282-.562-.276-.565-.27-.567-.264-.57-.26-.573-.253-.575-.247-.577-.238-.571-.237-.582-.23-.585-.226-.587-.219-.589-.213-.59-.207-.594-.202-.596-.195-.598-.19-.6-.183-.6-.178-.604-.17-.605-.166-.607-.159-.609-.152-.61-.146-.612-.14-.613-.134-.615-.128-.616-.121-.617-.115-.618-.109-.62-.102-.62-.096-.622-.09-.622-.083-.624-.077-.624-.071-.624-.065-.626-.058-.626-.052-.626-.046-.627-.04-.628-.033-.627-.027-.628-.021-.628-.015-.628-.01-.628-.003-.628.003-.618.01-.628.014-.628.02-.627.028-.628.033-.628.04-.627.045-.627.052-.626.058-.626.064-.626.07-.624.078-.624.083-.624.09-.622.095-.622.102-.62.108-.62.115-.618.121-.618.127-.616.134-.614.14-.613.146-.612.152-.61.159-.61.165-.606.17-.605.178-.604.183-.602.189-.6.195-.597.201-.596.208-.593.213-.592.219-.59.224-.586.23-.585.237-.582.242-.58.142-.334.25-.573.256-.574.262-.571.268-.569.273-.566.279-.563.285-.56.29-.559.295-.555.302-.551.307-.55.312-.545.318-.543.324-.539.328-.536.335-.533.34-.529.345-.526.35-.522.356-.519.361-.515.366-.51.372-.508.376-.504.382-.5.386-.496.392-.492.396-.488.402-.484.406-.48.41-.476.416-.472.42-.467.424-.463.43-.46.433-.454.437-.451.442-.446.258-.256.446-.438.453-.435.457-.431.462-.426.465-.423.47-.417.474-.413.478-.408.482-.403.487-.399.49-.394.494-.388.498-.384.502-.379.506-.374.51-.368.513-.364.517-.358.52-.353.524-.347.528-.342.531-.337.535-.332.538-.326.54-.32.545-.315.548-.31.55-.303.554-.299.556-.292.56-.287.562-.282.565-.276.567-.27.57-.264.573-.26.575-.252.577-.248.571-.238.582-.237.585-.23.587-.225.589-.22.591-.213.593-.207.596-.202.598-.195.6-.19.6-.183.604-.177.605-.172.607-.165.609-.158.61-.153.612-.146.613-.14.615-.134.616-.128.617-.121.618-.115.62-.109.62-.102.622-.096.622-.09.624-.083.624-.077.625-.071.625-.065.626-.058.627-.052.626-.046.628-.04.627-.033.628-.027.628-.021.628-.015.628-.01.628-.002.618.002.628.01.628.014.627.021.628.027.628.033.627.04.627.045.626.052.626.058.626.064.624.07.624.078.624.083.622.09.622.095.62.102.62.108.618.115.618.121.616.127.614.134.614.14.611.146.61.152.61.159.606.165.605.17.604.178.602.183.6.189.597.195.596.202.593.207.592.213.589.219.587.225.585.23.582.236.58.242.334.142.574.25.573.256.571.262.569.268.566.273.563.28.561.284.558.29.555.295.551.302.55.307.545.312.543.318.539.324.536.329.533.334.529.34.526.345.522.35.519.356.514.361.512.366.507.372.504.376.5.382.496.387.492.391.488.396.484.402.48.406.476.41.472.416.467.42.463.425.46.429.454.433.451.438.446.442.256.257.438.446.435.453.431.458.427.46.421.467.418.47.413.473.408.478.403.482.399.487.393.49.39.494.383.498.379.502.374.506.368.51.364.513.358.517.353.52.347.525.342.527.337.532.332.534.326.538.32.541.315.544.31.548.303.55.298.554.293.556.287.56.282.562.275.565.27.567.265.57.26.573.252.575.248.578.238.57.236.582.231.585.225.587.22.589.213.591.207.594.202.595.195.598.19.6.183.6.178.604.17.605.166.607.158.609.153.61.146.612.14.613.134.615.128.616.121.617.115.618.109.62.102.62.096.622.09.622.083.624.077.624.071.625.064.625.059.626.052.626.046.627.04.628.033.627.027.628.021.628.015.628.01.628.002.628v.014l-.002.604zm-2.941-1.832-.008-.6-.015-.599-.02-.6-.026-.598-.031-.599-.038-.598-.044-.598-.049-.597-.056-.597-.06-.596-.068-.595-.073-.594-.08-.594-.085-.593-.091-.592-.097-.591-.104-.59-.11-.589-.115-.587-.12-.587-.128-.585-.133-.584-.14-.582-.145-.581-.15-.58-.158-.578-.163-.576-.168-.575-.175-.573-.18-.571-.186-.57-.192-.568-.198-.565-.203-.564-.21-.562-.213-.56-.22-.557-.226-.556-.227-.544-.236-.551-.242-.549-.247-.546-.252-.544-.257-.541-.263-.539-.268-.536-.273-.533-.28-.53-.283-.527-.29-.525-.294-.522-.3-.518-.305-.516-.31-.512-.316-.51-.32-.505-.326-.503-.331-.499-.336-.496-.341-.492-.346-.49-.351-.485-.356-.481-.36-.479-.366-.474-.37-.471-.375-.467-.38-.464-.385-.46-.389-.456-.393-.452-.398-.448-.403-.444-.407-.44-.41-.437-.416-.432-.422-.431-.24-.242-.426-.422-.43-.418-.434-.413-.438-.41-.442-.405-.446-.4-.45-.397-.453-.391-.458-.388-.46-.382-.466-.378-.468-.373-.473-.369-.476-.363-.48-.359-.483-.354-.487-.349-.49-.344-.494-.339-.497-.333-.5-.33-.505-.323-.507-.318-.51-.314-.514-.308-.517-.303-.52-.298-.522-.292-.526-.288-.529-.282-.531-.276-.535-.272-.537-.266-.54-.26-.542-.256-.544-.25-.548-.244-.552-.241-.313-.134-.554-.23-.555-.226-.558-.22-.56-.214-.561-.21-.564-.202-.565-.198-.568-.192-.57-.186-.57-.18-.574-.175-.574-.169-.577-.163-.577-.157-.58-.15-.581-.146-.582-.14-.584-.133-.586-.127-.586-.121-.588-.116-.588-.109-.59-.103-.591-.098-.592-.091-.593-.085-.594-.08-.595-.073-.595-.067-.596-.062-.597-.055-.597-.05-.598-.043-.598-.038-.599-.032-.599-.026-.6-.02-.599-.014-.6-.009-.59-.003-.6.003-.6.009-.599.014-.6.02-.598.026-.599.032-.598.037-.597.044-.598.05-.596.055-.596.06-.596.068-.594.074-.594.079-.593.085-.592.091-.59.098-.59.103-.59.11-.587.115-.587.12-.585.128-.584.133-.582.14-.581.145-.58.15-.578.158-.576.163-.575.168-.573.175-.571.18-.57.186-.567.192-.566.198-.564.203-.562.209-.56.214-.557.22-.556.226-.544.227-.551.236-.549.242-.546.246-.544.253-.541.257-.539.263-.536.268-.533.273-.53.28-.527.283-.525.29-.522.294-.518.3-.516.305-.512.31-.51.316-.505.32-.503.326-.499.331-.496.336-.492.341-.49.346-.485.35-.481.357-.479.36-.474.366-.471.37-.467.375-.464.38-.46.385-.455.389-.453.393-.448.398-.444.403-.44.407-.437.41-.432.416-.43.422-.243.24-.422.426-.418.43-.413.434-.41.438-.405.442-.4.446-.397.45-.391.453-.388.458-.382.46-.378.466-.373.469-.368.472-.364.476-.359.48-.354.483-.349.487-.343.49-.34.494-.333.497-.33.5-.323.505-.318.507-.314.51-.308.514-.303.517-.298.52-.292.522-.287.526-.282.529-.277.531-.271.535-.266.537-.261.54-.256.542-.25.544-.244.548-.24.552-.134.314-.231.553-.226.555-.22.558-.214.56-.21.561-.202.564-.198.566-.192.567-.186.57-.18.57-.175.574-.169.574-.163.577-.157.578-.15.58-.146.58-.14.583-.133.584-.127.585-.121.586-.116.588-.109.589-.103.59-.098.59-.091.593-.085.593-.08.593-.073.595-.067.595-.062.596-.055.597-.05.597-.043.598-.038.598-.032.599-.026.599-.02.6-.014.6-.009.599-.003.59.003.6.009.6.014.599.02.6.026.598.032.599.037.598.044.598.05.597.055.597.061.595.067.596.074.595.079.593.085.593.091.592.098.59.103.59.11.59.115.588.121.586.127.585.133.584.14.583.145.58.15.58.158.578.163.576.168.575.175.573.18.571.187.57.191.568.198.565.203.564.209.562.214.56.22.557.226.556.227.544.236.551.242.55.246.545.253.544.257.541.263.539.268.536.274.533.278.53.284.528.29.524.294.522.3.518.305.516.31.512.316.51.32.505.326.503.331.499.336.496.341.492.346.49.35.485.357.481.36.479.366.474.37.471.375.467.38.464.385.46.389.456.393.452.398.448.403.444.407.44.41.437.416.433.422.43.24.242.426.422.43.418.435.414.438.409.441.405.446.4.45.397.453.392.458.387.461.382.465.378.469.373.472.369.476.363.48.36.483.353.487.349.49.344.494.339.497.333.5.33.505.323.507.319.51.313.514.308.517.303.52.298.522.293.526.287.529.282.531.276.535.272.537.266.54.26.542.256.544.25.548.245.552.24.314.134.553.23.555.226.558.22.56.214.561.21.564.202.566.198.567.192.57.186.57.18.574.175.574.169.577.163.578.157.58.15.58.146.583.14.584.133.585.127.586.121.588.116.589.11.59.102.59.098.593.091.593.085.593.08.595.073.595.068.596.061.597.055.597.05.598.043.599.038.598.032.6.026.599.02.599.014.6.009.59.003.6-.003.6-.009.599-.014.6-.02.598-.026.599-.032.598-.037.598-.044.597-.05.597-.055.596-.061.595-.067.595-.074.593-.079.593-.085.592-.092.591-.097.59-.103.589-.11.588-.115.586-.121.585-.127.584-.133.583-.14.58-.145.58-.15.578-.158.576-.163.575-.168.573-.175.572-.18.569-.187.568-.191.565-.198.564-.203.562-.209.56-.214.557-.22.556-.226.544-.227.551-.236.55-.242.545-.246.544-.253.541-.257.539-.263.536-.268.533-.273.53-.279.528-.284.524-.29.522-.294.518-.3.516-.305.512-.31.51-.316.505-.32.503-.326.499-.331.496-.336.492-.341.49-.346.485-.35.482-.357.478-.36.474-.366.471-.37.468-.375.463-.38.46-.384.456-.39.452-.393.448-.398.444-.403.44-.407.437-.41.432-.416.431-.422.242-.24.422-.426.418-.43.413-.434.41-.438.405-.442.4-.446.397-.45.391-.453.388-.458.382-.46.378-.466.373-.468.368-.473.364-.476.359-.48.354-.483.349-.487.344-.49.339-.494.333-.497.33-.5.323-.505.319-.507.313-.51.308-.514.303-.516.298-.52.292-.523.288-.526.281-.529.277-.531.272-.534.266-.538.26-.539.255-.542.25-.545.245-.548.24-.552.135-.313.23-.554.226-.555.22-.558.214-.56.21-.561.203-.564.197-.566.192-.567.186-.57.18-.57.175-.574.169-.575.163-.576.157-.578.151-.58.145-.58.14-.583.133-.583.127-.586.121-.586.116-.588.109-.589.104-.59.097-.59.091-.593.086-.593.079-.593.073-.595.068-.595.061-.596.055-.597.05-.597.043-.598.038-.598.032-.599.026-.599.02-.6.015-.599.008-.6.003-.59v-.014zM221.21 181.21c7.018-7.018 15.078-12.452 24.18-16.301 9.423-3.986 19.294-5.98 29.61-5.98 10.317 0 20.187 1.994 29.611 5.98 9.102 3.85 17.161 9.283 24.18 16.301 7.017 7.018 12.451 15.078 16.3 24.18 3.987 9.423 5.98 19.294 5.98 29.61 0 10.317-1.993 20.187-5.98 29.611-3.849 9.101-9.282 17.161-16.3 24.18-7.019 7.017-15.078 12.451-24.18 16.3-9.424 3.987-19.294 5.98-29.61 5.98-10.317 0-20.187-1.993-29.612-5.98-9.101-3.849-17.16-9.282-24.179-16.3-7.018-7.019-12.452-15.078-16.301-24.18-3.986-9.424-5.98-19.294-5.98-29.61 0-10.317 1.994-20.188 5.98-29.612 3.85-9.101 9.283-17.16 16.301-24.179zm4.138 103.443c6.48 6.48 13.92 11.496 22.32 15.05 8.696 3.677 17.807 5.516 27.332 5.516 9.525 0 18.636-1.839 27.332-5.517 8.4-3.553 15.84-8.57 22.32-15.05s11.497-13.92 15.05-22.32c3.678-8.696 5.517-17.806 5.517-27.332 0-9.525-1.839-18.636-5.517-27.331-3.553-8.4-8.57-15.841-15.05-22.321-6.48-6.48-13.92-11.497-22.32-15.05-8.696-3.678-17.807-5.517-27.332-5.517-9.525 0-18.636 1.84-27.331 5.517-8.401 3.553-15.841 8.57-22.321 15.05-6.48 6.48-11.497 13.92-15.05 22.32-3.678 8.696-5.517 17.807-5.517 27.332 0 9.525 1.839 18.636 5.517 27.332 3.553 8.4 8.57 15.84 15.05 22.32z" data-paper-data="{&quot;isPathIcon&quot;:true}" style="fill:#5a97f7"/></g><g data-paper-data="{&quot;isPrimaryText&quot;:true}" fill-rule="nonzero"><path d="m173.707 224.256.31-2.23 11.718 1.63.299-2.152-11.717-1.629.313-2.255-1.944-.27-.923 6.636z" data-paper-data="{&quot;glyphName&quot;:&quot;T&quot;,&quot;glyphIndex&quot;:0,&quot;firstGlyphOfWord&quot;:true,&quot;word&quot;:1}" style="fill:#5a97f7"/><path d="M186.479 203.782c-1.374-.432-2.45-.414-3.204.501l-.025-.008c-.158-1.065-.874-1.757-2.247-2.189l-1.023-.322c-2.022-.637-3.304-.052-3.98 2.094l-.982 3.121 13.156 4.142.652-2.072-5.367-1.69.22-.699c.299-.948.874-1.206 2.097-.821l2.072.652c1.074.338 1.297.326 1.686.311l.66-2.097c-.562.043-1.044-.082-1.668-.278zm-5.646.5c1.049.33 1.249.915 1.005 1.689l-.251.799-4.044-1.274.314-.998c.228-.724.754-.915 1.678-.624z" data-paper-data="{&quot;glyphName&quot;:&quot;R&quot;,&quot;glyphIndex&quot;:1,&quot;word&quot;:1}" style="fill:#5a97f7"/><path d="m183.619 185.738-2.648 5.26 12.297 6.19 2.648-5.26-1.777-.895-1.67 3.32-3.601-1.812 1.33-2.642-1.754-.883-1.33 2.642-3.413-1.718 1.671-3.32z" data-paper-data="{&quot;glyphName&quot;:&quot;E&quot;,&quot;glyphIndex&quot;:2,&quot;word&quot;:1}" style="fill:#5a97f7"/><path d="m198.671 177.537-.03.042-7.942-3.103-1.603 2.2 11.144 8.127 1.141-1.565-8.078-5.891.03-.043 9.636 3.756 1.311-1.798-11.144-8.127-1.126 1.544z" data-paper-data="{&quot;glyphName&quot;:&quot;N&quot;,&quot;glyphIndex&quot;:3,&quot;word&quot;:1}" style="fill:#5a97f7"/><path d="m200.339 162.862 1.371 1.404 2.809-2.744 3.973 9.949 1.354 1.385 4.53-4.426-1.39-1.422-2.939 2.87-3.955-9.929-1.353-1.385z" data-paper-data="{&quot;glyphName&quot;:&quot;Z&quot;,&quot;glyphIndex&quot;:4,&quot;word&quot;:1}" style="fill:#5a97f7"/><path d="m220.869 163.055 1.75-1.285-8.164-11.117-1.75 1.286z" data-paper-data="{&quot;glyphName&quot;:&quot;I&quot;,&quot;glyphIndex&quot;:5,&quot;word&quot;:1}" style="fill:#5a97f7"/><path d="m231.351 150.007-.046.025-5.803-6.246-2.4 1.283 6.504 12.164 1.707-.914-4.714-8.816.046-.025 7.046 7.57 1.962-1.049-6.504-12.163-1.685.9z" data-paper-data="{&quot;glyphName&quot;:&quot;N&quot;,&quot;glyphIndex&quot;:6,&quot;word&quot;:1}" style="fill:#5a97f7"/><path d="m245.334 141.727-2.335.775-1.863-5.614-2.062.685 4.336 13.066 2.061-.685-1.854-5.589 2.335-.774 1.854 5.589 2.087-.693-4.336-13.066-2.086.693z" data-paper-data="{&quot;glyphName&quot;:&quot;H&quot;,&quot;glyphIndex&quot;:7,&quot;word&quot;:1}" style="fill:#5a97f7"/><path d="M259.021 132.454c-2.07.32-2.993 1.709-2.66 3.856l1.074 6.931c.33 2.12 1.63 3.164 3.699 2.843 2.043-.316 2.993-1.708 2.664-3.83l-1.075-6.93c-.332-2.147-1.659-3.187-3.702-2.87zm2.702 10.255c.144.931-.213 1.357-.886 1.461-.672.105-1.142-.193-1.287-1.124l-1.114-7.19c-.148-.957.21-1.384.882-1.488.672-.104 1.142.194 1.29 1.15z" data-paper-data="{&quot;glyphName&quot;:&quot;O&quot;,&quot;glyphIndex&quot;:8,&quot;lastGlyphOfWord&quot;:true,&quot;word&quot;:1}" style="fill:#5a97f7"/><path d="m287.67 132.004-4.057 13.338 1.971.271.702-2.413 2.645.364.024 2.513 2.152.297-.3-13.938zm1.116 2.637.026.003.087 7.04-2.074-.286z" data-paper-data="{&quot;glyphName&quot;:&quot;A&quot;,&quot;glyphIndex&quot;:9,&quot;firstGlyphOfWord&quot;:true,&quot;word&quot;:2}" style="fill:#5a97f7"/><path d="M307.87 140.09c.639-2.048-.02-3.542-1.994-4.157-1.974-.614-3.39.233-4.028 2.282l-2.077 6.672c-.638 2.05.045 3.55 2.02 4.165 1.974.615 3.364-.24 4.002-2.29l.53-1.699-1.9-.591-.568 1.824c-.288.925-.789 1.125-1.439.923-.65-.203-.948-.652-.66-1.576l2.155-6.922c.288-.925.797-1.15 1.447-.948.65.202.94.677.653 1.601l-.429 1.375 1.9.591z" data-paper-data="{&quot;glyphName&quot;:&quot;C&quot;,&quot;glyphIndex&quot;:10,&quot;word&quot;:2}" style="fill:#5a97f7"/><path d="m320.243 141.602-8.16 11.304 1.776.895 1.446-2.055 2.384 1.201-.792 2.386 1.94.977 4.233-13.282zm.2 2.857.024.012-2.199 6.688-1.87-.943z" data-paper-data="{&quot;glyphName&quot;:&quot;A&quot;,&quot;glyphIndex&quot;:11,&quot;word&quot;:2}" style="fill:#5a97f7"/><path d="m333.776 149.443-8.16 11.089 2.762 2.032c1.729 1.272 3.307.938 4.61-.833l4.126-5.607c1.318-1.792 1.152-3.377-.576-4.649zm-2.584 11.064c-.59.801-1.129.827-1.677.424l-.97-.714 5.817-7.905.97.713c.548.404.684.926.094 1.727z" data-paper-data="{&quot;glyphName&quot;:&quot;D&quot;,&quot;glyphIndex&quot;:12,&quot;word&quot;:2}" style="fill:#5a97f7"/><path d="m351.221 164.551-4.114-4.213-9.85 9.618 4.114 4.213 1.423-1.39-2.596-2.659 2.884-2.816 2.066 2.117 1.404-1.372-2.066-2.116 2.734-2.67 2.597 2.66zm1.572-6.107-3.525.735 1.39 1.424 1.485-.39-.443 1.457 1.39 1.423.837-3.488z" data-paper-data="{&quot;glyphName&quot;:&quot;Ê&quot;,&quot;glyphIndex&quot;:13,&quot;word&quot;:2}" style="fill:#5a97f7"/><path d="m352.595 182.044-.03-.043 7.19-6.827-1.702-2.484-11.38 7.795 1.066 1.554 8.054-5.516.03.043-7.167 6.812 1.153 1.684 8.99-4.38.015.02-8.162 5.591 1.154 1.684 11.38-7.794-1.701-2.483z" data-paper-data="{&quot;glyphName&quot;:&quot;M&quot;,&quot;glyphIndex&quot;:14,&quot;word&quot;:2}" style="fill:#5a97f7"/><path d="m355.91 195.471.931 1.963 12.464-5.907-.93-1.963z" data-paper-data="{&quot;glyphName&quot;:&quot;I&quot;,&quot;glyphIndex&quot;:15,&quot;word&quot;:2}" style="fill:#5a97f7"/><path d="M371.83 208.334c2.05-.633 2.909-2.021 2.299-3.997-.61-1.976-2.11-2.663-4.16-2.03l-6.677 2.062c-2.051.633-2.902 2.046-2.292 4.022.61 1.975 2.102 2.638 4.152 2.005l1.7-.525-.586-1.901-1.826.564c-.925.285-1.373-.014-1.574-.665-.2-.65 0-1.15.926-1.436l6.927-2.139c.925-.285 1.399.007 1.6.657.2.65-.026 1.158-.951 1.444l-1.376.425.587 1.9z" data-paper-data="{&quot;glyphName&quot;:&quot;C&quot;,&quot;glyphIndex&quot;:16,&quot;word&quot;:2}" style="fill:#5a97f7"/><path d="M377.8 220.803c-.286-2.074-1.659-3.021-3.81-2.725l-6.95.957c-2.125.293-3.19 1.576-2.905 3.65.282 2.048 1.658 3.021 3.784 2.728l6.949-.957c2.152-.296 3.213-1.604 2.931-3.653zm-10.3 2.528c-.933.129-1.353-.236-1.446-.91-.093-.675.213-1.14 1.146-1.268l7.208-.992c.96-.133 1.38.232 1.473.906.092.675-.214 1.14-1.173 1.271z" data-paper-data="{&quot;glyphName&quot;:&quot;O&quot;,&quot;glyphIndex&quot;:17,&quot;lastGlyphOfWord&quot;:true,&quot;word&quot;:2}" style="fill:#5a97f7"/></g><g data-paper-data="{&quot;isMirroredPrimaryText&quot;:true}" fill-rule="nonzero"><path d="m178.166 245.124.31 2.23-11.717 1.629.3 2.151 11.716-1.629.314 2.256 1.944-.27-.923-6.637z" data-paper-data="{&quot;glyphName&quot;:&quot;T&quot;,&quot;glyphIndex&quot;:0,&quot;firstGlyphOfWord&quot;:true,&quot;word&quot;:1}" style="fill:#5a97f7"/><path d="M175.494 269.676c1.373-.432 2.245-1.063 2.339-2.245l.025-.008c.74.782 1.722.94 3.095.507l1.024-.322c2.022-.637 2.738-1.85 2.062-3.997l-.983-3.12-13.156 4.142.652 2.072 5.368-1.69.22.699c.299.948-.025 1.49-1.248 1.874l-2.072.653c-1.074.338-1.25.476-1.56.71l.66 2.097c.436-.356.903-.53 1.527-.727zm4.34-3.644c-1.048.33-1.547-.034-1.79-.808l-.252-.799 4.044-1.273.315.999c.228.724-.094 1.182-1.018 1.473z" data-paper-data="{&quot;glyphName&quot;:&quot;R&quot;,&quot;glyphIndex&quot;:1,&quot;word&quot;:1}" style="fill:#5a97f7"/><path d="m191.1 280.497-2.648-5.26-12.296 6.19 2.647 5.26 1.777-.895-1.671-3.32 3.6-1.812 1.33 2.642 1.753-.882-1.33-2.642 3.414-1.718 1.67 3.32z" data-paper-data="{&quot;glyphName&quot;:&quot;E&quot;,&quot;glyphIndex&quot;:2,&quot;word&quot;:1}" style="fill:#5a97f7"/><path d="m192.158 297.214-.03-.043 5.38-6.613-1.603-2.199-11.144 8.127 1.14 1.565 8.079-5.89.03.041-6.52 8.027 1.311 1.798 11.144-8.127-1.126-1.544z" data-paper-data="{&quot;glyphName&quot;:&quot;N&quot;,&quot;glyphIndex&quot;:3,&quot;word&quot;:1}" style="fill:#5a97f7"/><path d="m206.228 301.11-1.372 1.404 2.808 2.744-9.852 4.205-1.353 1.386 4.53 4.426 1.39-1.423-2.94-2.871 9.835-4.188 1.353-1.385z" data-paper-data="{&quot;glyphName&quot;:&quot;Z&quot;,&quot;glyphIndex&quot;:4,&quot;word&quot;:1}" style="fill:#5a97f7"/><path d="m209.528 322.386 1.751 1.286 8.165-11.117-1.751-1.286z" data-paper-data="{&quot;glyphName&quot;:&quot;I&quot;,&quot;glyphIndex&quot;:5,&quot;word&quot;:1}" style="fill:#5a97f7"/><path d="m227.55 327.102-.046-.025 1.972-8.294-2.4-1.284-6.504 12.164 1.708.913 4.714-8.817.046.025-2.383 10.063 1.962 1.049 6.504-12.164-1.685-.9z" data-paper-data="{&quot;glyphName&quot;:&quot;N&quot;,&quot;glyphIndex&quot;:6,&quot;word&quot;:1}" style="fill:#5a97f7"/><path d="m244.262 331.502-2.335-.775 1.863-5.614-2.062-.684-4.336 13.066 2.062.684 1.855-5.589 2.335.775-1.855 5.59 2.087.692 4.335-13.066-2.086-.693z" data-paper-data="{&quot;glyphName&quot;:&quot;H&quot;,&quot;glyphIndex&quot;:7,&quot;word&quot;:1}" style="fill:#5a97f7"/><path d="M260.312 329.218c-2.07-.32-3.37.722-3.702 2.87l-1.075 6.93c-.329 2.121.595 3.51 2.664 3.83 2.043.317 3.37-.722 3.699-2.843l1.074-6.932c.333-2.146-.617-3.538-2.66-3.855zm-.53 10.591c-.144.932-.614 1.23-1.286 1.125-.673-.104-1.03-.53-.886-1.461l1.115-7.19c.148-.957.618-1.255 1.29-1.151.673.104 1.03.53.882 1.487z" data-paper-data="{&quot;glyphName&quot;:&quot;O&quot;,&quot;glyphIndex&quot;:8,&quot;lastGlyphOfWord&quot;:true,&quot;word&quot;:1}" style="fill:#5a97f7"/><path d="m286.52 329.648-.3 13.938 1.97-.271.024-2.514 2.645-.364.702 2.413 2.152-.296-4.056-13.338zm1.787 2.237.026-.003 1.987 6.754-2.074.285z" data-paper-data="{&quot;glyphName&quot;:&quot;A&quot;,&quot;glyphIndex&quot;:9,&quot;firstGlyphOfWord&quot;:true,&quot;word&quot;:2}" style="fill:#5a97f7"/><path d="M307.388 328.36c-.638-2.049-2.028-2.904-4.002-2.29-1.974.615-2.658 2.117-2.02 4.166l2.078 6.672c.638 2.049 2.053 2.897 4.027 2.282 1.974-.615 2.633-2.109 1.995-4.158l-.53-1.699-1.898.592.568 1.824c.288.924-.01 1.374-.66 1.576-.65.202-1.151.002-1.44-.923l-2.155-6.921c-.288-.925.003-1.4.653-1.602.65-.202 1.158.023 1.446.948l.428 1.374 1.9-.591z" data-paper-data="{&quot;glyphName&quot;:&quot;C&quot;,&quot;glyphIndex&quot;:10,&quot;word&quot;:2}" style="fill:#5a97f7"/><path d="m316.449 320.873 4.234 13.282 1.776-.895-.792-2.385 2.384-1.202 1.446 2.055 1.94-.977-8.16-11.304zm2.416 1.537.024-.012 4.068 5.745-1.87.943z" data-paper-data="{&quot;glyphName&quot;:&quot;A&quot;,&quot;glyphIndex&quot;:11,&quot;word&quot;:2}" style="fill:#5a97f7"/><path d="m328.812 313.811 8.16 11.089 2.761-2.033c1.729-1.271 1.88-2.877.576-4.648l-4.126-5.607c-1.318-1.792-2.88-2.105-4.61-.833zm9.794 5.759c.59.8.454 1.323-.094 1.726l-.97.714-5.817-7.905.97-.714c.548-.403 1.087-.377 1.676.424z" data-paper-data="{&quot;glyphName&quot;:&quot;D&quot;,&quot;glyphIndex&quot;:12,&quot;word&quot;:2}" style="fill:#5a97f7"/><path d="m345.229 299.598-4.114 4.213 9.85 9.618 4.114-4.214-1.423-1.39-2.597 2.66-2.884-2.816 2.066-2.116-1.404-1.371-2.066 2.116-2.734-2.67 2.596-2.659zm-6.144-1.426.82 3.507 1.39-1.423-.426-1.476 1.467.408 1.39-1.423-3.507-.754z" data-paper-data="{&quot;glyphName&quot;:&quot;Ê&quot;,&quot;glyphIndex&quot;:13,&quot;word&quot;:2}" style="fill:#5a97f7"/><path d="m361.794 294.257-.03.043-8.963-4.236-1.7 2.484 11.379 7.794 1.065-1.555-8.054-5.517.03-.043 8.94 4.221 1.154-1.684-7.334-6.8.015-.021 8.162 5.59 1.154-1.684-11.38-7.794-1.7 2.483z" data-paper-data="{&quot;glyphName&quot;:&quot;M&quot;,&quot;glyphIndex&quot;:14,&quot;word&quot;:2}" style="fill:#5a97f7"/><path d="m373.224 282.734.93-1.963-12.464-5.907-.93 1.963z" data-paper-data="{&quot;glyphName&quot;:&quot;I&quot;,&quot;glyphIndex&quot;:15,&quot;word&quot;:2}" style="fill:#5a97f7"/><path d="M370.279 261.188c-2.05-.634-3.543.029-4.153 2.004-.61 1.976.241 3.39 2.292 4.022l6.677 2.062c2.05.633 3.55-.054 4.16-2.03.61-1.976-.248-3.364-2.299-3.997l-1.7-.525-.587 1.9 1.825.564c.925.286 1.127.787.926 1.437-.2.65-.65.95-1.574.664l-6.928-2.139c-.925-.285-1.151-.794-.95-1.444.2-.65.674-.942 1.6-.656l1.374.424.587-1.9z" data-paper-data="{&quot;glyphName&quot;:&quot;C&quot;,&quot;glyphIndex&quot;:16,&quot;word&quot;:2}" style="fill:#5a97f7"/><path d="M369.45 248.048c-.285 2.074.78 3.356 2.932 3.653l6.949.957c2.126.292 3.498-.655 3.783-2.729.282-2.048-.78-3.357-2.905-3.65l-6.949-.956c-2.152-.297-3.528.676-3.81 2.725zm10.6.35c.933.128 1.239.593 1.146 1.267-.093.674-.513 1.039-1.447.91l-7.208-.992c-.959-.132-1.265-.597-1.172-1.271.093-.674.513-1.04 1.472-.907z" data-paper-data="{&quot;glyphName&quot;:&quot;O&quot;,&quot;glyphIndex&quot;:17,&quot;lastGlyphOfWord&quot;:true,&quot;word&quot;:2}" style="fill:#5a97f7"/></g><g data-paper-data="{&quot;isContainerElementsWrapper&quot;:true}" fill-rule="evenodd"><path d="M183.783 143.783c-11.9 11.901-21.115 25.569-27.643 41.003C149.38 200.768 146 217.506 146 235s3.38 34.232 10.14 50.214c6.528 15.435 15.743 29.103 27.643 41.003 11.901 11.9 25.568 21.115 41.003 27.643C240.768 360.62 257.506 364 275 364s34.232-3.38 50.214-10.14c15.434-6.528 29.101-15.742 41.003-27.643 11.9-11.9 21.115-25.568 27.643-41.003C400.62 269.232 404 252.494 404 235s-3.38-34.232-10.14-50.214c-6.528-15.435-15.743-29.102-27.643-41.003-11.901-11.9-25.568-21.115-41.003-27.643C309.232 109.38 292.494 106 275 106s-34.232 3.38-50.214 10.14c-15.434 6.528-29.102 15.743-41.003 27.643zM147.407 235c0-17.304 3.343-33.86 10.029-49.666 6.457-15.266 15.57-28.784 27.342-40.556 11.772-11.771 25.29-20.885 40.556-27.342 15.807-6.686 32.362-10.029 49.666-10.029 17.303 0 33.859 3.343 49.667 10.029 15.265 6.457 28.784 15.571 40.555 27.342 11.77 11.771 20.885 25.29 27.343 40.556 6.685 15.807 10.028 32.363 10.028 49.666 0 17.304-3.343 33.86-10.028 49.667-6.457 15.265-15.571 28.783-27.343 40.555-11.77 11.77-25.288 20.885-40.555 27.343-15.808 6.685-32.363 10.028-49.667 10.028-17.304 0-33.86-3.343-49.666-10.028-15.266-6.457-28.784-15.571-40.556-27.343-11.771-11.771-20.885-25.29-27.342-40.555-6.686-15.808-10.029-32.363-10.029-49.667z" data-paper-data="{&quot;isAdditionalOutlinePath&quot;:true}" style="fill:#5a97f7"/><path d="M186.73 146.73c-11.517 11.518-20.434 24.745-26.751 39.68-6.54 15.463-9.81 31.66-9.81 48.59 0 16.93 3.27 33.127 9.81 48.59 6.317 14.936 15.234 28.162 26.752 39.68 11.519 11.518 24.745 20.436 39.678 26.752 15.465 6.54 31.662 9.81 48.591 9.81 16.93 0 33.127-3.27 48.59-9.81 14.936-6.318 28.163-15.235 39.68-26.752 11.518-11.52 20.436-24.746 26.752-39.68 6.54-15.463 9.81-31.66 9.81-48.59 0-16.93-3.27-33.127-9.81-48.59-6.318-14.936-15.235-28.162-26.752-39.68-11.518-11.517-24.744-20.434-39.68-26.751-15.462-6.54-31.659-9.81-48.59-9.81-16.93 0-33.127 3.27-48.59 9.81-14.935 6.317-28.162 15.234-39.68 26.752zM152.63 235c0-16.597 3.206-32.475 9.617-47.631 6.192-14.64 14.934-27.606 26.225-38.897 11.291-11.291 24.257-20.033 38.897-26.225 15.156-6.411 31.034-9.616 47.631-9.616 16.598 0 32.475 3.205 47.632 9.616 14.64 6.192 27.605 14.934 38.896 26.225 11.291 11.29 20.033 24.256 26.225 38.897 6.411 15.156 9.616 31.034 9.616 47.631 0 16.598-3.205 32.475-9.616 47.632-6.191 14.64-14.933 27.604-26.225 38.896-11.29 11.291-24.256 20.033-38.896 26.225-15.157 6.411-31.034 9.616-47.632 9.616-16.596 0-32.474-3.205-47.631-9.616-14.64-6.19-27.605-14.932-38.897-26.225-11.291-11.291-20.033-24.256-26.225-38.896-6.411-15.157-9.616-31.034-9.616-47.632z" data-paper-data="{&quot;isBaseLogoContainer&quot;:true}" style="fill:#5a97f7"/></g></g><g class="watermark-group" style="opacity:.040000010281801224"><path class="watermark-path" d="M129.52 370.3a11.88 11.88 0 0 1 2.58 5.58 12 12 0 0 1 .11 3 11.81 11.81 0 0 1-.64 2.93 12.34 12.34 0 0 1-1.41 2.72 11.65 11.65 0 0 1-2.13 2.32 12 12 0 0 1-2.64 1.69 13 13 0 0 1-2.91.9 12.47 12.47 0 0 1-3 .12 12.17 12.17 0 0 1-2.93-.64 11.8 11.8 0 0 1-2.72-1.38 12.19 12.19 0 0 1-4-4.79 11.85 11.85 0 0 1-.89-2.92 12.14 12.14 0 0 1-.13-3 11.54 11.54 0 0 1 .64-2.92 11.67 11.67 0 0 1 3.5-5 11.44 11.44 0 0 1 2.67-1.69 11.64 11.64 0 0 1 2.92-.91 10.71 10.71 0 0 1 3-.12 11.68 11.68 0 0 1 5.66 2 11.7 11.7 0 0 1 2.34 2.12m-1.4 8.76a13 13 0 0 1-1.22 2.32 9.68 9.68 0 0 1-1.81 2 7.44 7.44 0 0 1-2.38 1.37 6.17 6.17 0 0 1-5.11-.46 8.73 8.73 0 0 1-3.85-4.58 6.69 6.69 0 0 1-.34-2.66 6.09 6.09 0 0 1 .77-2.47 7.15 7.15 0 0 1 1.75-2.11 9.58 9.58 0 0 1 1.09-.81 8.23 8.23 0 0 1 1.12-.63 8.14 8.14 0 0 1 1.19-.46 12.71 12.71 0 0 1 1.32-.37l2 2.38a12.83 12.83 0 0 0-1.56.17 7.86 7.86 0 0 0-1.23.32 4.5 4.5 0 0 0-1 .49 6.41 6.41 0 0 0-.93.67 4.49 4.49 0 0 0-1.15 1.39 3.87 3.87 0 0 0-.45 1.58 4.12 4.12 0 0 0 .26 1.63 6.11 6.11 0 0 0 2.36 2.82 4.43 4.43 0 0 0 1.57.53 3.91 3.91 0 0 0 1.62-.17 4.71 4.71 0 0 0 1.57-.89 10.5 10.5 0 0 0 .83-.79 5.71 5.71 0 0 0 .65-.93 10.13 10.13 0 0 0 .54-1.14 12.24 12.24 0 0 0 .44-1.49l2 2.33m-14.46 4.55a8.86 8.86 0 0 0 2.78 2.22 9 9 0 0 0 3.29.94 9.15 9.15 0 0 0 3.39-.37 8.68 8.68 0 0 0 3.11-1.69 8.8 8.8 0 0 0 2.22-2.78 9.15 9.15 0 0 0 1-3.29 8.95 8.95 0 0 0-4.83-8.76 9 9 0 0 0-6.73-.57 9 9 0 0 0-5.33 4.47 8.94 8.94 0 0 0-.57 6.71 8.76 8.76 0 0 0 1.7 3.12M147 349c-.48.12-1.09.31-1.82.57a24.37 24.37 0 0 0-2.4 1A28.35 28.35 0 0 0 140 352a20.72 20.72 0 0 0-2.71 1.94c-.7.59-1.28 1.11-1.74 1.57a15.07 15.07 0 0 0-1.1 1.22 4.09 4.09 0 0 0-.59.92 2.32 2.32 0 0 0-.22.64 1.16 1.16 0 0 0 0 .47 1.83 1.83 0 0 0 .18.29 1.15 1.15 0 0 0 1 .37 5.54 5.54 0 0 0 1.51-.38q.87-.35 1.95-.9l2.26-1.18q1.2-.65 2.49-1.29c.87-.44 1.73-.83 2.59-1.17a18.94 18.94 0 0 1 2.6-.81 9.27 9.27 0 0 1 2.46-.29 6.25 6.25 0 0 1 2.24.49 5.12 5.12 0 0 1 1.89 1.47 6.35 6.35 0 0 1 1.41 2.61 6 6 0 0 1 .09 2.6 8.3 8.3 0 0 1-.9 2.52 17.79 17.79 0 0 1-1.62 2.37 23.92 23.92 0 0 1-2 2.15c-.72.67-1.41 1.29-2.09 1.87a33.79 33.79 0 0 1-5.33 3.7 32.29 32.29 0 0 1-4.91 2.28l-3.61-4.3a21.38 21.38 0 0 0 5.39-1.87 27.2 27.2 0 0 0 5.4-3.56 21.59 21.59 0 0 0 2.38-2.27 8.67 8.67 0 0 0 1.18-1.7 2.32 2.32 0 0 0 .27-1.19 1.34 1.34 0 0 0-.28-.74 1.21 1.21 0 0 0-1-.42 4.32 4.32 0 0 0-1.55.34 15.77 15.77 0 0 0-2 .88c-.72.37-1.48.77-2.27 1.21l-2.45 1.3c-.85.45-1.7.85-2.56 1.21a22.37 22.37 0 0 1-2.54.86 10 10 0 0 1-2.43.32 5.76 5.76 0 0 1-2.2-.45 5 5 0 0 1-1.89-1.45 6.12 6.12 0 0 1-1.31-2.41 6 6 0 0 1-.1-2.41 8.28 8.28 0 0 1 .81-2.38 14.06 14.06 0 0 1 1.49-2.24 22.37 22.37 0 0 1 1.85-2.05q1-1 2-1.77c.7-.59 1.44-1.15 2.23-1.7s1.62-1.06 2.44-1.53 1.63-.91 2.43-1.3 1.58-.75 2.3-1L147 349m39.76-11.43-10.6-12.63 3.92 18.24-4.66 3.91-17.27-7 10.6 12.63-4.86 4.07-15.09-18 6.59-5.54 18.69 7.52-4.15-19.71 6.57-5.52 15.09 18-4.83 4.05m22.08-24.35-10 8.42 1.16 4.82-5.44 4.52-5.68-25.89 5.42-4.55 24.51 10.09-5.42 4.55-4.55-2m-11.23 3.45 6.57-5.52-8.83-3.87 2.26 9.39m29.88-35.27c-.48.12-1.09.31-1.82.57a24.37 24.37 0 0 0-2.4 1 26.11 26.11 0 0 0-2.7 1.47 20.72 20.72 0 0 0-2.71 1.94c-.7.59-1.28 1.11-1.74 1.57a13.39 13.39 0 0 0-1.1 1.22 4.29 4.29 0 0 0-.59.91 2.48 2.48 0 0 0-.22.65 1.16 1.16 0 0 0 0 .47 1.83 1.83 0 0 0 .18.29 1.15 1.15 0 0 0 1 .37 5.54 5.54 0 0 0 1.51-.38q.87-.34 2-.9l2.26-1.18q1.2-.64 2.49-1.29c.87-.44 1.73-.83 2.59-1.17a18.94 18.94 0 0 1 2.6-.81 9.27 9.27 0 0 1 2.46-.29 6.08 6.08 0 0 1 2.24.49 5.09 5.09 0 0 1 1.89 1.46 6.47 6.47 0 0 1 1.41 2.61 6.07 6.07 0 0 1 .09 2.61 8.3 8.3 0 0 1-.9 2.52 16.32 16.32 0 0 1-1.63 2.36 21.41 21.41 0 0 1-2 2.16c-.72.67-1.41 1.29-2.1 1.86a33.36 33.36 0 0 1-5.32 3.71 31.92 31.92 0 0 1-4.92 2.28l-3.6-4.3a21.38 21.38 0 0 0 5.39-1.87 27.2 27.2 0 0 0 5.4-3.56 21.59 21.59 0 0 0 2.38-2.27 8.67 8.67 0 0 0 1.18-1.7A2.32 2.32 0 0 0 231 293a1.34 1.34 0 0 0-.28-.74 1.21 1.21 0 0 0-1-.42 4.32 4.32 0 0 0-1.55.34 16.54 16.54 0 0 0-2 .88c-.71.37-1.47.77-2.26 1.21l-2.46 1.3c-.84.44-1.7.85-2.55 1.21a24.53 24.53 0 0 1-2.54.86 10 10 0 0 1-2.36.36 5.76 5.76 0 0 1-2.2-.45 5 5 0 0 1-1.89-1.45 6.12 6.12 0 0 1-1.31-2.41 5.78 5.78 0 0 1-.1-2.41 8 8 0 0 1 .81-2.38 14.61 14.61 0 0 1 1.49-2.25 22.26 22.26 0 0 1 1.85-2q1-1 2-1.77c.7-.59 1.44-1.15 2.23-1.7s1.62-1.06 2.44-1.53 1.63-.91 2.43-1.31 1.58-.74 2.3-1l3.5 4.16m34.09-6.76-6.29-7.5L243 277.61l6.3 7.5-4.86 4.07-15.09-18 4.85-4.08 5.49 6.55L252 263.3l-5.49-6.55 4.86-4.07 15.09 18-4.86 4.08m10.58-8.86-15.09-18 4.86-4.08 15.09 18-4.86 4.08m27.47-23.05-22.51-2.18L287.51 253l-4.85 4.08-15.1-18 5.28-4.43 22.56 2.22L285 224.5l4.83-4.06 15.09 18-5.26 4.42m7.02-37.34a31.88 31.88 0 0 1 5.29-3.66 34.48 34.48 0 0 1 5.14-2.35l3.69 4.39a20.77 20.77 0 0 0-2.37.61 20.47 20.47 0 0 0-2.61 1 25.12 25.12 0 0 0-2.76 1.49 23.9 23.9 0 0 0-2.8 2 20.42 20.42 0 0 0-2.8 2.77 12.77 12.77 0 0 0-1.64 2.52 7 7 0 0 0-.68 2.24 6 6 0 0 0 .66 3.64 8.16 8.16 0 0 0 .94 1.38 9.12 9.12 0 0 0 1.08 1.07 6.39 6.39 0 0 0 1.47.91 6.73 6.73 0 0 0 1.88.48 6.54 6.54 0 0 0 2.28-.18 11.67 11.67 0 0 0 2.74-1.07 19.38 19.38 0 0 0 3.18-2.22c.57-.48 1.06-.92 1.46-1.31a14.57 14.57 0 0 0 1-1.13 11.46 11.46 0 0 0 .81-1.05l.74-1.09-1.82-2.17-5.45 4.57-3.31-3.94 10.31-8.65 7.71 9.19a29 29 0 0 1-1.67 2.43q-1 1.26-2.1 2.52c-.74.84-1.5 1.65-2.3 2.44s-1.58 1.5-2.33 2.14a31 31 0 0 1-3.59 2.61 22.55 22.55 0 0 1-3.64 1.83 15.64 15.64 0 0 1-3.63.89 10.72 10.72 0 0 1-3.49-.15 10.45 10.45 0 0 1-3.28-1.33 12.54 12.54 0 0 1-3-2.67 12 12 0 0 1-2.08-3.44 10.45 10.45 0 0 1-.71-3.5 11.14 11.14 0 0 1 .51-3.51 15.72 15.72 0 0 1 1.56-3.43 21.62 21.62 0 0 1 2.42-3.28 30.3 30.3 0 0 1 3.15-3m30.27 6.08-15.1-18 4.86-4.08 11.79 14 13.13-11 3.31 3.94-18 15.1m37.64-46.84a12.28 12.28 0 0 1 2.59 4.81 10.44 10.44 0 0 1 0 5 14.62 14.62 0 0 1-2.33 5 25.55 25.55 0 0 1-4.56 4.85 26.07 26.07 0 0 1-5.6 3.67 14.79 14.79 0 0 1-5.38 1.43 10.43 10.43 0 0 1-4.94-.89 13.24 13.24 0 0 1-6.87-8.18 10.48 10.48 0 0 1 0-5 14.51 14.51 0 0 1 2.36-5 25.23 25.23 0 0 1 4.57-4.89 25 25 0 0 1 5.59-3.64 14.45 14.45 0 0 1 5.35-1.43 10.31 10.31 0 0 1 4.93.92 12.22 12.22 0 0 1 4.28 3.38m-4.91 4.11a8.36 8.36 0 0 0-2-1.72 5.5 5.5 0 0 0-2.65-.85 7.72 7.72 0 0 0-3.32.57 14.49 14.49 0 0 0-4 2.52 16.72 16.72 0 0 0-2.38 2.4 10.15 10.15 0 0 0-1.39 2.24 6.71 6.71 0 0 0-.56 2.1 5.69 5.69 0 0 0 .1 1.9 6.21 6.21 0 0 0 .61 1.69 9.85 9.85 0 0 0 1 1.44 10.48 10.48 0 0 0 1.26 1.23 6.67 6.67 0 0 0 1.57.92 6.1 6.1 0 0 0 1.85.41 6.8 6.8 0 0 0 2.15-.2 11.06 11.06 0 0 0 2.45-1 17.67 17.67 0 0 0 2.77-1.94 14.39 14.39 0 0 0 3.18-3.52 7.74 7.74 0 0 0 1.14-3.17 5.54 5.54 0 0 0-.37-2.74 8.52 8.52 0 0 0-1.36-2.3m12.99-27.07a32.3 32.3 0 0 1 5.34-3.66 34.12 34.12 0 0 1 5.15-2.35l3.69 4.4a19.62 19.62 0 0 0-2.37.6 22.08 22.08 0 0 0-2.61 1 26 26 0 0 0-2.77 1.49 23.9 23.9 0 0 0-2.8 2 21 21 0 0 0-2.8 2.78 13.19 13.19 0 0 0-1.64 2.51 7.29 7.29 0 0 0-.68 2.24 6.36 6.36 0 0 0 .06 2 5.8 5.8 0 0 0 .61 1.68 8.12 8.12 0 0 0 .93 1.38 9.16 9.16 0 0 0 1.08 1.08 6.56 6.56 0 0 0 1.48.9 6 6 0 0 0 1.87.48 6.76 6.76 0 0 0 2.28-.17 12 12 0 0 0 2.74-1.08 18.57 18.57 0 0 0 3.18-2.22c.58-.48 1.06-.92 1.46-1.31s.75-.77 1.05-1.12.57-.72.81-1.06l.73-1.09-1.82-2.17-5.45 4.57-3.3-3.94 10.3-8.65 7.71 9.19a29 29 0 0 1-1.67 2.43q-1 1.26-2.1 2.52c-.73.84-1.5 1.66-2.3 2.44s-1.57 1.5-2.33 2.14a31 31 0 0 1-3.59 2.61 22.15 22.15 0 0 1-3.64 1.83 15.56 15.56 0 0 1-3.62.89 11 11 0 0 1-3.49-.14 10.84 10.84 0 0 1-3.28-1.33 12.82 12.82 0 0 1-3-2.68 12.12 12.12 0 0 1-2.08-3.43A10.71 10.71 0 0 1 375 155a11.18 11.18 0 0 1 .51-3.51 15.51 15.51 0 0 1 1.57-3.43 21.44 21.44 0 0 1 2.42-3.28 30.19 30.19 0 0 1 3.14-3m45.99-22.47a12.26 12.26 0 0 1 2.59 4.82 10.44 10.44 0 0 1 0 5 14.53 14.53 0 0 1-2.34 5 25.29 25.29 0 0 1-4.56 4.86 26 26 0 0 1-5.59 3.67 14.84 14.84 0 0 1-5.38 1.43 10.61 10.61 0 0 1-4.95-.89 12.15 12.15 0 0 1-4.3-3.37 12 12 0 0 1-2.56-4.81 10.48 10.48 0 0 1 0-5 14.39 14.39 0 0 1 2.35-5 27.89 27.89 0 0 1 10.16-8.53 14.49 14.49 0 0 1 5.36-1.43 10.27 10.27 0 0 1 4.92.92 12.21 12.21 0 0 1 4.28 3.37m-4.91 4.12a8.17 8.17 0 0 0-2-1.72 5.58 5.58 0 0 0-2.65-.86 7.86 7.86 0 0 0-3.31.58 14.49 14.49 0 0 0-4 2.52 16.21 16.21 0 0 0-2.38 2.4 9.85 9.85 0 0 0-1.4 2.24 7 7 0 0 0-.56 2.1 6 6 0 0 0 .1 1.9 6.23 6.23 0 0 0 .62 1.69 8.49 8.49 0 0 0 1 1.44 9.18 9.18 0 0 0 1.26 1.23 6.67 6.67 0 0 0 1.57.92 6 6 0 0 0 1.84.41 6.86 6.86 0 0 0 2.16-.2 11.26 11.26 0 0 0 2.45-1 17.62 17.62 0 0 0 2.76-1.94 14.67 14.67 0 0 0 3.19-3.52 7.71 7.71 0 0 0 1.13-3.17 5.53 5.53 0 0 0-.36-2.74 8.55 8.55 0 0 0-1.37-2.3" style="fill:#5a97f7"/></g></svg>