<svg class="svg-standalone-icon" width="100%" viewBox="200.72819896643844 114.99999999999997 148.54360206712303 148.54260206980203"><g data-paper-data="{&quot;fillRule&quot;:&quot;nonzero&quot;,&quot;fillRuleOriginal&quot;:&quot;nonzero&quot;,&quot;isIcon&quot;:true,&quot;iconStyle&quot;:&quot;standalone&quot;,&quot;selectedEffects&quot;:{&quot;container&quot;:&quot;&quot;,&quot;transformation&quot;:&quot;&quot;,&quot;pattern&quot;:&quot;&quot;},&quot;bounds&quot;:{&quot;x&quot;:200.72819896643844,&quot;y&quot;:114.99999999999997,&quot;width&quot;:148.54360206712303,&quot;height&quot;:148.54260206980203},&quot;iconType&quot;:&quot;icon&quot;,&quot;rawIconId&quot;:&quot;be54bb8b-99c8-40f7-a323-fa5294e730b4&quot;,&quot;isDetailed&quot;:false,&quot;suitableAsStandaloneIcon&quot;:true}" fill-rule="nonzero"><g data-paper-data="{&quot;isPathIcon&quot;:true}"><path d="M349.2408,191.4768l0.017,-0.741l0.011,-0.742l0.003,-0.714v-0.017l-0.004,-0.742l-0.011,-0.742l-0.017,-0.741l-0.025,-0.742l-0.032,-0.742l-0.04,-0.741l-0.047,-0.741l-0.054,-0.741l-0.061,-0.74l-0.069,-0.739l-0.076,-0.739l-0.084,-0.738l-0.091,-0.738l-0.099,-0.736l-0.105,-0.735l-0.114,-0.735l-0.121,-0.733l-0.128,-0.732l-0.136,-0.73l-0.143,-0.729l-0.151,-0.728l-0.158,-0.726l-0.165,-0.724l-0.174,-0.723l-0.18,-0.721l-0.187,-0.719l-0.195,-0.717l-0.202,-0.715l-0.21,-0.713l-0.217,-0.71l-0.223,-0.709l-0.231,-0.706l-0.239,-0.703l-0.245,-0.701l-0.252,-0.699l-0.259,-0.696l-0.265,-0.693l-0.273,-0.691l-0.279,-0.687l-0.281,-0.674l-0.293,-0.683l-0.299,-0.679l-0.306,-0.676l-0.313,-0.674l-0.319,-0.67l-0.326,-0.668l-0.332,-0.664l-0.339,-0.661l-0.346,-0.657l-0.352,-0.654l-0.36,-0.65l-0.365,-0.647l-0.372,-0.643l-0.378,-0.64l-0.386,-0.635l-0.391,-0.631l-0.398,-0.628l-0.404,-0.623l-0.411,-0.62l-0.417,-0.615l-0.423,-0.61l-0.429,-0.607l-0.436,-0.602l-0.441,-0.597l-0.448,-0.593l-0.453,-0.589l-0.459,-0.584l-0.466,-0.579l-0.47,-0.574l-0.477,-0.57l-0.482,-0.564l-0.488,-0.56l-0.493,-0.555l-0.498,-0.55l-0.504,-0.546l-0.509,-0.54l-0.515,-0.535l-0.516,-0.527l-0.303,-0.304l-0.527,-0.522l-0.532,-0.517l-0.538,-0.512l-0.542,-0.507l-0.547,-0.502l-0.553,-0.496l-0.557,-0.491l-0.562,-0.485l-0.567,-0.48l-0.572,-0.474l-0.577,-0.468l-0.581,-0.462l-0.586,-0.457l-0.59,-0.451l-0.595,-0.445l-0.6,-0.439l-0.604,-0.432l-0.608,-0.427l-0.613,-0.42l-0.617,-0.414l-0.621,-0.408l-0.625,-0.401l-0.63,-0.395l-0.633,-0.389l-0.637,-0.382l-0.641,-0.376l-0.645,-0.369l-0.648,-0.362l-0.652,-0.356l-0.656,-0.35l-0.658,-0.342l-0.663,-0.337l-0.665,-0.329l-0.669,-0.323l-0.672,-0.316l-0.675,-0.31l-0.677,-0.302l-0.678,-0.295l-0.394,-0.168l-0.685,-0.286l-0.688,-0.279l-0.691,-0.272l-0.694,-0.266l-0.695,-0.259l-0.699,-0.251l-0.701,-0.245l-0.704,-0.238l-0.706,-0.231l-0.709,-0.223l-0.711,-0.217l-0.713,-0.209l-0.715,-0.202l-0.717,-0.194l-0.719,-0.188l-0.721,-0.18l-0.723,-0.172l-0.724,-0.165l-0.726,-0.158l-0.728,-0.151l-0.729,-0.143l-0.731,-0.135l-0.732,-0.128l-0.733,-0.121l-0.734,-0.113l-0.735,-0.105l-0.737,-0.099l-0.737,-0.09l-0.738,-0.084l-0.739,-0.076l-0.739,-0.068l-0.74,-0.061l-0.741,-0.054l-0.741,-0.047l-0.741,-0.039l-0.742,-0.032l-0.741,-0.025l-0.742,-0.017l-0.742,-0.011l-0.73,-0.003l-0.742,0.004l-0.742,0.01l-0.742,0.018l-0.742,0.025l-0.741,0.032l-0.742,0.04l-0.741,0.047l-0.74,0.054l-0.741,0.061l-0.739,0.069l-0.739,0.076l-0.738,0.084l-0.737,0.091l-0.737,0.099l-0.735,0.106l-0.734,0.113l-0.733,0.121l-0.732,0.128l-0.731,0.136l-0.729,0.143l-0.728,0.151l-0.726,0.158l-0.724,0.166l-0.723,0.172l-0.721,0.181l-0.719,0.187l-0.717,0.195l-0.715,0.203l-0.712,0.209l-0.711,0.217l-0.708,0.223l-0.706,0.231l-0.704,0.238l-0.701,0.245l-0.699,0.252l-0.696,0.259l-0.693,0.266l-0.69,0.273l-0.688,0.279l-0.674,0.281l-0.682,0.293l-0.68,0.299l-0.676,0.306l-0.674,0.312l-0.67,0.32l-0.668,0.326l-0.664,0.332l-0.66,0.339l-0.658,0.346l-0.654,0.352l-0.65,0.359l-0.647,0.366l-0.643,0.372l-0.639,0.378l-0.636,0.385l-0.631,0.392l-0.628,0.398l-0.623,0.404l-0.619,0.411l-0.615,0.417l-0.611,0.423l-0.607,0.429l-0.602,0.435l-0.597,0.442l-0.593,0.447l-0.589,0.454l-0.583,0.459l-0.58,0.465l-0.574,0.471l-0.569,0.477l-0.565,0.482l-0.56,0.488l-0.555,0.493l-0.55,0.498l-0.545,0.504l-0.54,0.509l-0.535,0.514l-0.528,0.517l-0.304,0.303l-0.522,0.527l-0.517,0.532l-0.512,0.538l-0.507,0.542l-0.501,0.547l-0.497,0.553l-0.49,0.557l-0.486,0.562l-0.479,0.567l-0.474,0.572l-0.469,0.576l-0.462,0.582l-0.457,0.586l-0.451,0.59l-0.445,0.595l-0.438,0.6l-0.433,0.604l-0.426,0.608l-0.421,0.613l-0.414,0.617l-0.408,0.621l-0.401,0.625l-0.395,0.63l-0.389,0.633l-0.382,0.637l-0.375,0.641l-0.37,0.645l-0.362,0.648l-0.356,0.652l-0.349,0.656l-0.343,0.659l-0.336,0.662l-0.33,0.665l-0.323,0.669l-0.316,0.672l-0.309,0.675l-0.303,0.677l-0.295,0.677l-0.168,0.395l-0.286,0.685l-0.279,0.688l-0.272,0.691l-0.266,0.693l-0.258,0.697l-0.252,0.698l-0.245,0.702l-0.238,0.703l-0.23,0.707l-0.224,0.708l-0.216,0.711l-0.209,0.713l-0.202,0.715l-0.195,0.717l-0.187,0.719l-0.18,0.721l-0.173,0.723l-0.165,0.724l-0.158,0.726l-0.15,0.728l-0.143,0.729l-0.136,0.731l-0.128,0.732l-0.121,0.733l-0.113,0.734l-0.105,0.736l-0.098,0.736l-0.091,0.737l-0.084,0.738l-0.076,0.739l-0.068,0.74l-0.061,0.74l-0.054,0.74l-0.047,0.741l-0.039,0.741l-0.032,0.742l-0.024,0.742l-0.018,0.742l-0.01,0.741l-0.004,0.73l0.004,0.742l0.011,0.742l0.017,0.742l0.025,0.742l0.033,0.741l0.039,0.742l0.047,0.741l0.054,0.741l0.062,0.74l0.068,0.739l0.077,0.739l0.083,0.738l0.091,0.737l0.099,0.737l0.106,0.735l0.113,0.734l0.121,0.733l0.128,0.732l0.136,0.731l0.143,0.729l0.151,0.728l0.158,0.726l0.166,0.724l0.173,0.723l0.18,0.721l0.188,0.719l0.195,0.717l0.202,0.715l0.209,0.713l0.217,0.71l0.224,0.708l0.231,0.706l0.238,0.704l0.245,0.701l0.252,0.699l0.259,0.696l0.265,0.693l0.273,0.691l0.279,0.687l0.282,0.674l0.292,0.682l0.299,0.68l0.306,0.676l0.313,0.674l0.319,0.67l0.326,0.668l0.332,0.664l0.339,0.66l0.346,0.658l0.352,0.654l0.359,0.65l0.366,0.647l0.372,0.643l0.379,0.639l0.385,0.636l0.391,0.631l0.398,0.628l0.404,0.623l0.411,0.619l0.417,0.615l0.423,0.611l0.429,0.607l0.436,0.602l0.441,0.597l0.448,0.593l0.453,0.588l0.459,0.584l0.465,0.579l0.471,0.575l0.477,0.569l0.482,0.565l0.488,0.56l0.493,0.555l0.498,0.55l0.504,0.545l0.509,0.54l0.514,0.536l0.517,0.527l0.303,0.304l0.527,0.522l0.532,0.517l0.538,0.512l0.542,0.507l0.548,0.501l0.552,0.497l0.557,0.49l0.562,0.486l0.567,0.479l0.572,0.474l0.577,0.469l0.581,0.463l0.586,0.456l0.59,0.451l0.595,0.445l0.6,0.438l0.604,0.433l0.608,0.427l0.613,0.42l0.617,0.414l0.621,0.408l0.626,0.401l0.629,0.395l0.633,0.389l0.637,0.382l0.641,0.375l0.645,0.37l0.648,0.362l0.652,0.356l0.656,0.349l0.659,0.343l0.662,0.337l0.665,0.329l0.669,0.323l0.672,0.316l0.675,0.31l0.677,0.302l0.678,0.295l0.394,0.168l0.686,0.286l0.687,0.279l0.691,0.272l0.694,0.266l0.696,0.258l0.699,0.252l0.701,0.245l0.704,0.238l0.706,0.23l0.708,0.224l0.711,0.216l0.713,0.21l0.715,0.202l0.717,0.194l0.719,0.188l0.721,0.18l0.723,0.172l0.724,0.165l0.726,0.158l0.728,0.151l0.729,0.142l0.731,0.136l0.732,0.128l0.733,0.121l0.734,0.113l0.736,0.105l0.736,0.099l0.737,0.09l0.738,0.084l0.739,0.075l0.74,0.069l0.74,0.061l0.74,0.054l0.741,0.046l0.742,0.039l0.741,0.033l0.742,0.024l0.741,0.018l0.743,0.01l0.73,0.003l0.742,-0.003l0.742,-0.01l0.741,-0.018l0.742,-0.025l0.742,-0.033l0.741,-0.039l0.741,-0.047l0.741,-0.054l0.74,-0.062l0.739,-0.069l0.739,-0.076l0.738,-0.083l0.738,-0.091l0.736,-0.099l0.735,-0.106l0.735,-0.113l0.733,-0.121l0.732,-0.129l0.73,-0.135l0.729,-0.143l0.728,-0.151l0.726,-0.158l0.725,-0.166l0.722,-0.173l0.721,-0.18l0.719,-0.188l0.717,-0.194l0.715,-0.203l0.713,-0.209l0.71,-0.217l0.709,-0.224l0.706,-0.231l0.704,-0.237l0.701,-0.245l0.698,-0.253l0.696,-0.258l0.693,-0.266l0.691,-0.273l0.687,-0.279l0.675,-0.281l0.682,-0.293l0.679,-0.299l0.677,-0.306l0.673,-0.313l0.67,-0.319l0.668,-0.325l0.664,-0.333l0.661,-0.339l0.657,-0.346l0.654,-0.352l0.651,-0.359l0.646,-0.366l0.643,-0.372l0.639,-0.378l0.636,-0.386l0.631,-0.391l0.628,-0.398l0.623,-0.404l0.62,-0.411l0.615,-0.417l0.611,-0.423l0.606,-0.429l0.602,-0.435l0.597,-0.442l0.594,-0.447l0.588,-0.454l0.584,-0.459l0.579,-0.465l0.574,-0.471l0.57,-0.477l0.564,-0.482l0.56,-0.488l0.556,-0.493l0.55,-0.499l0.544,-0.503l0.541,-0.509l0.535,-0.515l0.527,-0.517l0.304,-0.302l0.522,-0.527l0.517,-0.532l0.512,-0.538l0.507,-0.542l0.501,-0.547l0.497,-0.553l0.49,-0.557l0.486,-0.562l0.479,-0.567l0.474,-0.572l0.469,-0.577l0.463,-0.581l0.456,-0.586l0.451,-0.59l0.445,-0.595l0.439,-0.6l0.432,-0.604l0.427,-0.608l0.42,-0.613l0.414,-0.617l0.408,-0.621l0.401,-0.625l0.395,-0.63l0.389,-0.633l0.382,-0.637l0.375,-0.641l0.37,-0.645l0.362,-0.648l0.356,-0.652l0.349,-0.656l0.343,-0.658l0.336,-0.663l0.33,-0.665l0.323,-0.669l0.316,-0.672l0.309,-0.675l0.303,-0.677l0.295,-0.677l0.168,-0.395l0.286,-0.686l0.279,-0.687l0.272,-0.691l0.266,-0.693l0.258,-0.697l0.252,-0.699l0.245,-0.701l0.238,-0.703l0.23,-0.707l0.224,-0.708l0.216,-0.711l0.21,-0.713l0.202,-0.715l0.194,-0.717l0.187,-0.719l0.18,-0.721l0.173,-0.723l0.165,-0.724l0.158,-0.726l0.15,-0.728l0.143,-0.729l0.136,-0.731l0.128,-0.732l0.121,-0.733l0.113,-0.734l0.105,-0.736l0.099,-0.736l0.09,-0.737l0.084,-0.738l0.076,-0.739l0.068,-0.74l0.061,-0.74l0.054,-0.74l0.047,-0.741l0.039,-0.742l0.032,-0.741zM204.21619,189.9718l-0.003,-0.708l0.003,-0.698l0.01,-0.708l0.017,-0.709l0.024,-0.708l0.031,-0.707l0.037,-0.707l0.045,-0.707l0.051,-0.707l0.059,-0.705l0.065,-0.705l0.073,-0.704l0.079,-0.704l0.087,-0.702l0.094,-0.701l0.101,-0.701l0.107,-0.699l0.116,-0.698l0.122,-0.697l0.129,-0.696l0.136,-0.694l0.143,-0.693l0.151,-0.691l0.157,-0.69l0.165,-0.688l0.171,-0.687l0.179,-0.684l0.185,-0.683l0.193,-0.681l0.199,-0.679l0.207,-0.677l0.213,-0.675l0.22,-0.672l0.226,-0.671l0.234,-0.668l0.24,-0.666l0.247,-0.663l0.253,-0.662l0.26,-0.658l0.266,-0.656l0.273,-0.654l0.158,-0.37l0.284,-0.653l0.289,-0.647l0.295,-0.643l0.302,-0.641l0.308,-0.637l0.314,-0.635l0.321,-0.631l0.327,-0.628l0.333,-0.624l0.339,-0.622l0.346,-0.617l0.351,-0.614l0.358,-0.611l0.365,-0.606l0.37,-0.603l0.376,-0.6l0.383,-0.595l0.388,-0.591l0.394,-0.588l0.401,-0.583l0.406,-0.579l0.412,-0.576l0.418,-0.571l0.424,-0.566l0.43,-0.563l0.435,-0.558l0.441,-0.553l0.446,-0.55l0.452,-0.545l0.457,-0.54l0.463,-0.536l0.468,-0.531l0.474,-0.527l0.478,-0.522l0.484,-0.517l0.489,-0.513l0.493,-0.508l0.499,-0.503l0.285,-0.284l0.509,-0.498l0.511,-0.491l0.516,-0.486l0.52,-0.481l0.525,-0.475l0.529,-0.47l0.534,-0.465l0.539,-0.46l0.543,-0.454l0.547,-0.449l0.552,-0.443l0.557,-0.437l0.56,-0.432l0.565,-0.426l0.57,-0.421l0.573,-0.414l0.578,-0.409l0.582,-0.403l0.585,-0.397l0.59,-0.39l0.594,-0.385l0.598,-0.379l0.601,-0.373l0.605,-0.366l0.609,-0.361l0.613,-0.354l0.616,-0.348l0.62,-0.342l0.623,-0.335l0.626,-0.33l0.63,-0.323l0.633,-0.316l0.636,-0.311l0.64,-0.304l0.642,-0.298l0.646,-0.292l0.648,-0.285l0.651,-0.279l0.643,-0.268l0.656,-0.267l0.659,-0.259l0.661,-0.254l0.664,-0.246l0.666,-0.241l0.668,-0.233l0.671,-0.227l0.673,-0.219l0.675,-0.214l0.677,-0.206l0.678,-0.199l0.681,-0.192l0.683,-0.186l0.685,-0.178l0.686,-0.172l0.688,-0.164l0.69,-0.158l0.692,-0.15l0.692,-0.143l0.695,-0.137l0.695,-0.129l0.697,-0.122l0.698,-0.115l0.7,-0.108l0.7,-0.1l0.702,-0.094l0.702,-0.087l0.703,-0.079l0.704,-0.073l0.705,-0.065l0.706,-0.058l0.706,-0.052l0.707,-0.044l0.707,-0.038l0.707,-0.03l0.708,-0.024l0.709,-0.017l0.708,-0.01l0.709,-0.003l0.697,0.003l0.708,0.01l0.709,0.017l0.708,0.024l0.707,0.03l0.708,0.038l0.707,0.045l0.706,0.051l0.705,0.059l0.705,0.065l0.704,0.073l0.704,0.079l0.702,0.087l0.701,0.094l0.701,0.1l0.699,0.108l0.699,0.115l0.697,0.122l0.695,0.13l0.695,0.136l0.692,0.143l0.692,0.151l0.689,0.157l0.688,0.165l0.687,0.171l0.685,0.179l0.682,0.185l0.681,0.193l0.679,0.199l0.677,0.206l0.675,0.213l0.672,0.22l0.671,0.227l0.668,0.233l0.666,0.241l0.664,0.246l0.661,0.254l0.658,0.259l0.656,0.267l0.654,0.273l0.37,0.157l0.653,0.285l0.647,0.289l0.643,0.295l0.641,0.302l0.637,0.308l0.635,0.314l0.631,0.321l0.628,0.326l0.625,0.334l0.621,0.339l0.617,0.345l0.614,0.352l0.611,0.358l0.607,0.364l0.603,0.37l0.599,0.377l0.595,0.382l0.591,0.389l0.588,0.394l0.583,0.401l0.58,0.406l0.575,0.412l0.57,0.418l0.567,0.424l0.562,0.429l0.559,0.436l0.553,0.44l0.55,0.447l0.545,0.452l0.54,0.457l0.536,0.463l0.531,0.468l0.527,0.473l0.522,0.479l0.517,0.483l0.513,0.489l0.508,0.494l0.503,0.499l0.284,0.285l0.498,0.509l0.491,0.511l0.486,0.515l0.48,0.521l0.476,0.524l0.47,0.53l0.465,0.534l0.46,0.539l0.454,0.543l0.449,0.547l0.443,0.552l0.437,0.556l0.432,0.561l0.426,0.565l0.42,0.569l0.415,0.574l0.409,0.578l0.403,0.581l0.396,0.586l0.391,0.59l0.385,0.594l0.379,0.597l0.372,0.602l0.367,0.605l0.361,0.609l0.354,0.613l0.348,0.616l0.342,0.619l0.335,0.624l0.33,0.626l0.323,0.63l0.316,0.633l0.311,0.636l0.304,0.64l0.298,0.642l0.291,0.645l0.286,0.649l0.279,0.651l0.268,0.643l0.267,0.656l0.259,0.659l0.254,0.661l0.246,0.664l0.241,0.666l0.233,0.668l0.227,0.671l0.219,0.672l0.214,0.675l0.206,0.677l0.199,0.679l0.192,0.681l0.186,0.683l0.178,0.685l0.172,0.686l0.164,0.688l0.158,0.69l0.15,0.691l0.143,0.693l0.137,0.694l0.129,0.696l0.122,0.697l0.115,0.698l0.108,0.699l0.1,0.701l0.094,0.701l0.087,0.703l0.079,0.703l0.073,0.704l0.065,0.705l0.058,0.706l0.052,0.706l0.044,0.706l0.038,0.707l0.03,0.708l0.024,0.708l0.017,0.708l0.01,0.709l0.003,0.692l0.001,0.016l-0.004,0.697l-0.01,0.709l-0.017,0.708l-0.024,0.709l-0.031,0.707l-0.037,0.707l-0.045,0.707l-0.051,0.706l-0.059,0.706l-0.065,0.705l-0.072,0.704l-0.08,0.704l-0.087,0.702l-0.093,0.701l-0.101,0.701l-0.108,0.699l-0.115,0.698l-0.122,0.697l-0.13,0.696l-0.136,0.694l-0.143,0.693l-0.151,0.691l-0.157,0.69l-0.164,0.688l-0.172,0.687l-0.179,0.684l-0.185,0.683l-0.193,0.681l-0.199,0.679l-0.206,0.677l-0.213,0.674l-0.22,0.673l-0.227,0.67l-0.233,0.669l-0.241,0.666l-0.246,0.663l-0.254,0.661l-0.259,0.659l-0.267,0.656l-0.273,0.654l-0.158,0.37l-0.284,0.653l-0.289,0.647l-0.295,0.643l-0.302,0.641l-0.308,0.637l-0.314,0.635l-0.321,0.631l-0.327,0.628l-0.333,0.625l-0.339,0.621l-0.346,0.617l-0.351,0.614l-0.358,0.611l-0.364,0.607l-0.37,0.603l-0.377,0.599l-0.382,0.595l-0.389,0.591l-0.394,0.588l-0.4,0.583l-0.407,0.58l-0.412,0.575l-0.418,0.57l-0.424,0.567l-0.43,0.562l-0.435,0.559l-0.44,0.553l-0.447,0.55l-0.452,0.545l-0.457,0.54l-0.463,0.536l-0.468,0.531l-0.473,0.527l-0.479,0.522l-0.483,0.517l-0.489,0.513l-0.494,0.508l-0.499,0.503l-0.285,0.284l-0.509,0.498l-0.511,0.491l-0.515,0.486l-0.52,0.48l-0.525,0.476l-0.53,0.47l-0.534,0.465l-0.539,0.46l-0.542,0.454l-0.548,0.449l-0.552,0.443l-0.556,0.437l-0.561,0.432l-0.565,0.426l-0.569,0.42l-0.574,0.415l-0.578,0.409l-0.581,0.403l-0.586,0.396l-0.59,0.391l-0.594,0.385l-0.597,0.379l-0.601,0.372l-0.606,0.367l-0.609,0.361l-0.612,0.354l-0.617,0.348l-0.619,0.342l-0.624,0.335l-0.626,0.33l-0.63,0.323l-0.633,0.316l-0.636,0.311l-0.639,0.304l-0.643,0.298l-0.645,0.291l-0.648,0.286l-0.652,0.279l-0.642,0.268l-0.657,0.267l-0.659,0.259l-0.661,0.254l-0.664,0.246l-0.666,0.24l-0.668,0.234l-0.671,0.226l-0.672,0.22l-0.675,0.213l-0.677,0.207l-0.679,0.199l-0.681,0.192l-0.683,0.186l-0.684,0.178l-0.687,0.172l-0.688,0.164l-0.69,0.157l-0.691,0.151l-0.693,0.143l-0.694,0.136l-0.696,0.129l-0.697,0.123l-0.698,0.114l-0.699,0.108l-0.701,0.101l-0.701,0.094l-0.702,0.086l-0.704,0.08l-0.704,0.072l-0.705,0.066l-0.705,0.058l-0.706,0.051l-0.707,0.045l-0.707,0.037l-0.708,0.031l-0.708,0.024l-0.708,0.017l-0.709,0.01l-0.708,0.003l-0.697,-0.003l-0.709,-0.01l-0.708,-0.017l-0.708,-0.024l-0.708,-0.031l-0.707,-0.037l-0.707,-0.045l-0.706,-0.051l-0.706,-0.059l-0.705,-0.065l-0.704,-0.073l-0.703,-0.079l-0.703,-0.087l-0.701,-0.094l-0.701,-0.101l-0.699,-0.108l-0.698,-0.115l-0.697,-0.122l-0.696,-0.129l-0.694,-0.136l-0.693,-0.144l-0.691,-0.15l-0.69,-0.157l-0.688,-0.165l-0.686,-0.172l-0.685,-0.178l-0.683,-0.186l-0.681,-0.192l-0.679,-0.199l-0.676,-0.206l-0.675,-0.213l-0.673,-0.22l-0.67,-0.227l-0.669,-0.234l-0.666,-0.24l-0.663,-0.246l-0.661,-0.254l-0.659,-0.26l-0.656,-0.266l-0.654,-0.273l-0.37,-0.157l-0.653,-0.285l-0.646,-0.289l-0.644,-0.295l-0.641,-0.302l-0.637,-0.308l-0.635,-0.314l-0.631,-0.321l-0.628,-0.327l-0.624,-0.333l-0.621,-0.339l-0.618,-0.346l-0.614,-0.351l-0.61,-0.358l-0.607,-0.364l-0.603,-0.37l-0.599,-0.377l-0.596,-0.382l-0.591,-0.389l-0.588,-0.394l-0.583,-0.4l-0.579,-0.407l-0.575,-0.412l-0.571,-0.418l-0.567,-0.424l-0.562,-0.43l-0.558,-0.435l-0.554,-0.441l-0.549,-0.446l-0.545,-0.452l-0.541,-0.457l-0.535,-0.463l-0.532,-0.468l-0.526,-0.473l-0.522,-0.479l-0.518,-0.483l-0.512,-0.489l-0.509,-0.494l-0.503,-0.499l-0.284,-0.285l-0.498,-0.509l-0.491,-0.511l-0.486,-0.516l-0.48,-0.52l-0.476,-0.525l-0.47,-0.529l-0.465,-0.534l-0.46,-0.539l-0.454,-0.543l-0.448,-0.547l-0.444,-0.552l-0.437,-0.557l-0.432,-0.56l-0.426,-0.565l-0.42,-0.57l-0.415,-0.573l-0.409,-0.578l-0.402,-0.582l-0.397,-0.585l-0.391,-0.59l-0.385,-0.594l-0.379,-0.597l-0.372,-0.602l-0.367,-0.605l-0.36,-0.609l-0.355,-0.613l-0.348,-0.616l-0.341,-0.62l-0.336,-0.623l-0.329,-0.626l-0.323,-0.63l-0.317,-0.633l-0.311,-0.636l-0.304,-0.64l-0.298,-0.642l-0.291,-0.645l-0.286,-0.649l-0.279,-0.651l-0.268,-0.643l-0.266,-0.656l-0.26,-0.659l-0.253,-0.661l-0.247,-0.664l-0.24,-0.666l-0.234,-0.668l-0.226,-0.671l-0.22,-0.673l-0.213,-0.674l-0.206,-0.677l-0.2,-0.68l-0.192,-0.68l-0.186,-0.683l-0.178,-0.685l-0.172,-0.686l-0.164,-0.688l-0.157,-0.69l-0.151,-0.692l-0.143,-0.692l-0.136,-0.694l-0.129,-0.696l-0.123,-0.697l-0.114,-0.698l-0.108,-0.699l-0.101,-0.701l-0.094,-0.701l-0.086,-0.703l-0.08,-0.703l-0.072,-0.704l-0.066,-0.705l-0.058,-0.706l-0.052,-0.706l-0.044,-0.706l-0.038,-0.707l-0.03,-0.708l-0.024,-0.708l-0.017,-0.708z" fill="#440099" style="fill: #5a97f7"></path><path d="M275,123.27598c-36.4489,0 -65.99582,29.54692 -65.99582,65.99582c0,36.4489 29.54792,65.99582 65.99582,65.99582c36.4489,0 65.99582,-29.54692 65.99582,-65.99582c0,-36.4489 -29.54692,-65.99582 -65.99582,-65.99582zM271.75301,141.15393c-5.46999,0.131 -10.54897,1.303 -15.36796,3.12599v101.06173c-3.64599,-1.042 -7.16298,-2.47399 -10.41897,-4.29799v-91.16376c-5.72998,4.03699 -10.67897,9.37697 -14.19496,15.49796h-11.59097c8.85598,-19.92595 28.52092,-33.86091 51.57286,-34.64191zM278.68499,245.34165v-114.60569c3.44199,0.127 6.88398,0.51 10.19797,1.274c25.87893,5.48199 45.25588,28.55592 45.25588,56.09285c0,17.84695 -8.28598,33.90991 -21.16194,44.49088l-7.26598,-7.26698c10.58097,-8.28598 17.59195,-21.03394 18.22995,-35.43991l-35.05791,20.14295v34.03691c-3.31399,0.765 -6.75598,1.148 -10.19797,1.275z" fill="#440099" style="fill: #5a97f7"></path><path d="M322.92087,178.54083l-34.03791,19.75995v-55.83685c17.20995,4.58899 30.46792,18.48495 34.03791,36.0769z" fill="#101820" style="fill: #5a97f7"></path></g></g></svg>