<svg xmlns:mydata="http://www.w3.org/2000/svg" mydata:contrastcolor="11111f" mydata:template="Contrast" mydata:presentation="2.5" mydata:layouttype="undefined" mydata:specialfontid="undefined" mydata:id1="934" mydata:id2="196" mydata:companyname="trenzinho" mydata:companytagline="" version="1.1" xmlns="http://www.w3.org/2000/svg" xmlns:xlink="http://www.w3.org/1999/xlink" viewBox="0 0 550 470"><g fill="#41b6e6" fill-rule="none" stroke="none" stroke-width="1" stroke-linecap="butt" stroke-linejoin="miter" stroke-miterlimit="10" stroke-dasharray="" stroke-dashoffset="0" font-family="none" font-weight="none" font-size="none" text-anchor="none" style="mix-blend-mode: normal"><g data-paper-data="{&quot;isGlobalGroup&quot;:true,&quot;bounds&quot;:{&quot;x&quot;:65,&quot;y&quot;:126.41165398994457,&quot;width&quot;:420,&quot;height&quot;:217.17669202011092}}"><g data-paper-data="{&quot;isPrimaryText&quot;:true}" fill-rule="nonzero"><path d="M67.11164,305.47052c-1.24533,0 -2.11164,0.86631 -2.11164,2.11164v4.06085c0,0.4873 0.10829,1.08289 0.59559,1.57019c0.4873,0.43316 1.08289,0.54145 1.51605,0.54145h16.94727v27.50548c0,0.43316 0.10829,1.02875 0.59559,1.51605c0.43316,0.4873 1.02875,0.59559 1.51605,0.59559h4.65644c0.4873,0 1.08289,-0.10829 1.51605,-0.59559c0.4873,-0.4873 0.59559,-1.08289 0.59559,-1.51605v-27.50548h16.89313c1.24533,0 2.16579,-0.81217 2.16579,-2.11164v-4.06085c0,-0.4873 -0.21658,-1.02875 -0.59559,-1.51605c-0.4873,-0.43316 -1.08289,-0.59559 -1.57019,-0.59559z" data-paper-data="{&quot;glyphName&quot;:&quot;t&quot;,&quot;glyphIndex&quot;:0,&quot;firstGlyphOfWord&quot;:true,&quot;word&quot;:1}"></path><path d="M117.89932,305.47052c-1.24533,0 -2.11164,0.86631 -2.11164,2.11164v5.95591c0,0.16243 0.05414,0.21658 0.21658,0.21658h32.97409c1.35362,0 1.94921,0.21658 2.21993,0.59559c0.27072,0.27072 0.54145,0.81217 0.54145,2.11164v6.38907c0,2.16579 -0.59559,2.70723 -2.76138,2.70723h-19.60036c-0.21658,0 -0.32487,0.21658 -0.16243,0.37901c3.19453,3.0321 11.74939,11.31623 17.97602,17.38043c0,0.05414 0.05414,0.05414 0.16243,0.05414h12.29083c0.16243,0 0.32487,-0.21658 0.16243,-0.37901c-1.89506,-1.89506 -7.0388,-6.76808 -9.31288,-8.93387c-0.16243,-0.16243 -0.05414,-0.37901 0.16243,-0.37901c6.76808,-0.70388 10.12505,-3.19453 10.12505,-10.23334v-7.52611c0,-6.76808 -3.68184,-10.44992 -10.44992,-10.44992z" data-paper-data="{&quot;glyphName&quot;:&quot;r&quot;,&quot;glyphIndex&quot;:1,&quot;word&quot;:1}"></path><path d="M167.27923,341.31427c0,0.43316 0.16243,1.02875 0.59559,1.46191c0.05414,0.16243 0.16243,0.16243 0.21658,0.21658c0.37901,0.27072 0.81217,0.37901 1.29947,0.37901h39.47145c0.43316,0 0.9746,-0.05414 1.40776,-0.43316l0.16243,-0.16243c0.43316,-0.4873 0.54145,-1.08289 0.54145,-1.51605v-4.06085c0,-0.32487 0,-0.54145 -0.05414,-0.59559c-0.16243,-1.02875 -1.13704,-1.51605 -2.0575,-1.51605h-39.52559c-0.70388,0 -1.08289,0.21658 -1.57019,0.70388c-0.27072,0.37901 -0.43316,0.81217 -0.43316,1.29947c-0.05414,0.05414 -0.05414,0.27072 -0.05414,0.64974zM167.33338,307.41972c0,0.21658 -0.05414,0.43316 -0.05414,0.64974v3.62769c0,0.43316 0.10829,1.02875 0.59559,1.51605c0.16243,0.05414 0.10829,0.10829 0.27072,0.16243c0.37901,0.37901 0.86631,0.37901 1.24533,0.37901h39.25487c0.43316,0 1.02875,-0.10829 1.51605,-0.54145c0.4873,-0.4873 0.59559,-1.08289 0.59559,-1.57019v-4.06085c0,-0.05414 -0.05414,-0.21658 -0.10829,-0.59559c-0.16243,-0.70388 -0.43316,-0.92046 -1.02875,-1.29947c-0.27072,-0.16243 -0.59559,-0.21658 -0.9746,-0.21658h-38.98414c-0.43316,-0.05414 -1.08289,0.05414 -1.57019,0.4873l-0.27072,0.21658c-0.37901,0.37901 -0.43316,0.86631 -0.4873,1.24533zM167.27923,326.80351c0.05414,0.4873 0.27072,0.86631 0.59559,1.13704c0.05414,0.16243 0.16243,0.16243 0.21658,0.21658c0.43316,0.37901 0.92046,0.37901 1.29947,0.37901h0.64974h38.06368c1.29947,0 2.11164,-0.81217 2.11164,-2.11164v-4.0067c0,-0.32487 0,-0.54145 -0.05414,-0.59559c-0.05414,-0.37901 -0.37901,-0.9746 -0.75803,-1.13704c-0.37901,-0.37901 -0.86631,-0.37901 -1.24533,-0.37901h-38.38855c-0.4873,-0.05414 -1.13704,0 -1.62434,0.43316l-0.27072,0.21658c-0.32487,0.37901 -0.4873,0.81217 -0.4873,1.19118l-0.10829,0.64974z" data-paper-data="{&quot;glyphName&quot;:&quot;e&quot;,&quot;glyphIndex&quot;:2,&quot;word&quot;:1}"></path><path d="M219.58296,305.47052c-1.24533,0 -2.11164,0.86631 -2.11164,2.11164v33.67797c0,1.24533 0.86631,2.11164 2.11164,2.11164h4.76473c0.4873,0 1.08289,-0.10829 1.51605,-0.59559c0.4873,-0.4873 0.59559,-1.08289 0.59559,-1.51605v-24.52752l27.45133,25.71871l0.10829,0.10829c0.37901,0.27072 0.86631,0.81217 1.89506,0.81217h5.90177c0.4873,0 1.13704,-0.10829 1.57019,-0.59559c0.4873,-0.43316 0.59559,-1.02875 0.59559,-1.51605v-33.67797c0,-1.24533 -0.92046,-2.11164 -2.16579,-2.11164h-4.76473c-1.24533,0 -2.11164,0.86631 -2.11164,2.11164v24.52752l-27.39719,-25.71871c-0.05414,-0.05414 -0.05414,-0.05414 -0.10829,-0.05414c-0.37901,-0.37901 -0.86631,-0.86631 -1.89506,-0.86631z" data-paper-data="{&quot;glyphName&quot;:&quot;n&quot;,&quot;glyphIndex&quot;:3,&quot;word&quot;:1}"></path><path d="M268.58386,335.62908c-0.27072,0.59559 -0.27072,1.02875 -0.27072,1.19118v4.43986c0,1.24533 0.86631,2.11164 2.11164,2.11164h39.20072c1.24533,0 2.11164,-0.86631 2.11164,-2.11164v-4.06085c0,-0.4873 -0.10829,-1.08289 -0.59559,-1.51605c-0.4873,-0.4873 -1.08289,-0.59559 -1.51605,-0.59559h-27.23476l28.20936,-20.89983c0.70388,-0.4873 1.08289,-1.24533 1.08289,-2.16579v-4.43986c0,-1.24533 -0.86631,-2.11164 -2.11164,-2.11164h-39.03829c-0.4873,0 -1.08289,0.10829 -1.51605,0.59559c-0.4873,0.4873 -0.59559,1.08289 -0.59559,1.51605v4.06085c0,1.29947 0.81217,2.11164 2.11164,2.11164h27.07232l-28.20936,20.89983c-0.37901,0.27072 -0.64974,0.59559 -0.81217,0.9746z" data-paper-data="{&quot;glyphName&quot;:&quot;z&quot;,&quot;glyphIndex&quot;:4,&quot;word&quot;:1}"></path><path d="M318.18035,305.47052c-1.24533,0 -2.11164,0.86631 -2.11164,2.11164v33.67797c0,1.24533 0.86631,2.11164 2.11164,2.11164h4.76473c0.4873,0 1.08289,-0.10829 1.51605,-0.59559c0.4873,-0.4873 0.59559,-1.08289 0.59559,-1.51605v-33.67797c0,-0.43316 -0.10829,-1.02875 -0.59559,-1.51605c-0.43316,-0.4873 -1.02875,-0.59559 -1.51605,-0.59559z" data-paper-data="{&quot;glyphName&quot;:&quot;i&quot;,&quot;glyphIndex&quot;:5,&quot;word&quot;:1}"></path><path d="M333.66572,305.47052c-1.24533,0 -2.11164,0.86631 -2.11164,2.11164v33.67797c0,1.24533 0.86631,2.11164 2.11164,2.11164h4.76473c0.4873,0 1.08289,-0.10829 1.51605,-0.59559c0.4873,-0.4873 0.59559,-1.08289 0.59559,-1.51605v-24.52752l27.45133,25.71871l0.10829,0.10829c0.37901,0.27072 0.86631,0.81217 1.89506,0.81217h5.90177c0.4873,0 1.13704,-0.10829 1.57019,-0.59559c0.4873,-0.43316 0.59559,-1.02875 0.59559,-1.51605v-33.67797c0,-1.24533 -0.92046,-2.11164 -2.16579,-2.11164h-4.76473c-1.24533,0 -2.11164,0.86631 -2.11164,2.11164v24.52752l-27.39719,-25.71871c-0.05414,-0.05414 -0.05414,-0.05414 -0.10829,-0.05414c-0.37901,-0.37901 -0.86631,-0.86631 -1.89506,-0.86631z" data-paper-data="{&quot;glyphName&quot;:&quot;n&quot;,&quot;glyphIndex&quot;:6,&quot;word&quot;:1}"></path><path d="M384.56169,341.26013c0,1.24533 0.86631,2.11164 2.11164,2.11164h4.76473c0.4873,0 1.08289,-0.10829 1.51605,-0.59559c0.4873,-0.4873 0.59559,-1.08289 0.59559,-1.51605v-12.72399h27.99278v12.72399c0,1.24533 0.86631,2.11164 2.11164,2.11164h4.76473c1.24533,0 2.16579,-0.81217 2.16579,-2.11164v-33.67797c0,-0.4873 -0.21658,-1.02875 -0.59559,-1.51605c-0.4873,-0.43316 -1.08289,-0.59559 -1.57019,-0.59559h-4.76473c-1.24533,0 -2.11164,0.86631 -2.11164,2.11164v12.72399h-27.99278v-12.72399c0,-0.43316 -0.10829,-1.02875 -0.59559,-1.51605c-0.43316,-0.4873 -1.02875,-0.59559 -1.51605,-0.59559h-4.76473c-1.24533,0 -2.11164,0.86631 -2.11164,2.11164z" data-paper-data="{&quot;glyphName&quot;:&quot;h&quot;,&quot;glyphIndex&quot;:7,&quot;word&quot;:1}"></path><path d="M437.08199,333.13843c0,6.98466 3.89841,10.44992 10.66649,10.44992h26.63916c6.76808,0 10.61235,-3.68184 10.61235,-10.44992v-17.38043c0,-6.98466 -3.84427,-10.44992 -10.61235,-10.44992h-26.63916c-6.98466,0 -10.66649,3.46526 -10.66649,10.44992zM446.07,316.2453c0,-1.02875 0.21658,-1.73263 0.59559,-2.00335c0.37901,-0.37901 1.08289,-0.64974 2.43651,-0.64974h23.93193c2.11164,0 2.97796,0.4873 2.97796,2.65309v16.35168c0,1.24533 -0.27072,1.67848 -0.54145,2.0575c-0.37901,0.37901 -1.08289,0.64974 -2.43651,0.64974h-23.93193c-1.35362,0 -2.0575,-0.32487 -2.43651,-0.70388c-0.37901,-0.27072 -0.59559,-0.9746 -0.59559,-2.00335z" data-paper-data="{&quot;glyphName&quot;:&quot;o&quot;,&quot;glyphIndex&quot;:8,&quot;lastGlyphOfWord&quot;:true,&quot;word&quot;:1}"></path></g><g data-paper-data="{&quot;fillRule&quot;:&quot;evenodd&quot;,&quot;fillRuleOriginal&quot;:&quot;evenodd&quot;,&quot;isIcon&quot;:&quot;true&quot;,&quot;iconStyle&quot;:&quot;standalone&quot;,&quot;selectedEffects&quot;:{&quot;container&quot;:&quot;&quot;,&quot;transformation&quot;:&quot;&quot;,&quot;pattern&quot;:&quot;&quot;},&quot;bounds&quot;:{&quot;x&quot;:212.76593177466603,&quot;y&quot;:126.41165398994457,&quot;width&quot;:124.46813645066797,&quot;height&quot;:150.56916506443923},&quot;iconType&quot;:&quot;initial&quot;,&quot;rawIconId&quot;:&quot;290985&quot;,&quot;isDetailed&quot;:false,&quot;initialText&quot;:&quot;T&quot;,&quot;rawInitialId&quot;:228,&quot;disableIconEffects&quot;:&quot;true&quot;,&quot;monogramSpecial&quot;:&quot;seven-nation-army&quot;,&quot;suitableAsStandaloneIcon&quot;:true}" fill-rule="evenodd"><g data-paper-data="{&quot;isPathIcon&quot;:true}"><path d="M238.57296,251.47179c0,0.417 0.01,0.834 0.03,1.251c0.021,0.417 0.052,0.834 0.093,1.249c0.041,0.415 0.092,0.83 0.153,1.243c0.061,0.413 0.132,0.824 0.214,1.233c0.081,0.41 0.173,0.817 0.274,1.222c0.102,0.405 0.213,0.807 0.334,1.207c0.121,0.399 0.252,0.795 0.393,1.188c0.14067,0.39333 0.29067,0.783 0.45,1.169c0.16,0.385 0.329,0.767 0.508,1.144c0.178,0.378 0.366,0.75 0.563,1.119c0.197,0.368 0.402,0.731 0.617,1.089c0.215,0.358 0.438,0.711 0.67,1.058c0.232,0.347 0.472,0.688 0.721,1.023c0.248,0.336 0.505,0.665 0.77,0.987c0.265,0.323 0.537,0.639 0.818,0.949c0.28,0.309 0.568,0.611 0.863,0.906c0.295,0.295 0.597,0.583 0.907,0.863c0.309,0.281 0.625,0.554 0.948,0.818c0.323,0.265 0.652,0.522 0.987,0.771c0.335,0.248 0.677,0.489 1.024,0.721c0.347,0.232 0.7,0.455 1.058,0.67c0.358,0.214 0.721,0.42 1.089,0.616c0.368,0.197 0.741,0.385 1.119,0.564c0.377,0.178 0.758,0.347 1.144,0.507c0.385,0.16 0.775,0.31 1.168,0.451c0.393,0.14 0.789,0.271 1.189,0.392c0.399,0.121 0.802,0.233 1.207,0.334c0.404,0.102 0.811,0.193 1.221,0.274c0.41,0.082 0.821,0.153 1.234,0.215c0.413,0.061 0.827,0.112 1.243,0.153c0.415,0.041 0.831,0.072 1.248,0.092c0.417,0.02 0.834,0.031 1.252,0.031h21.91002c0.417,0 0.834,-0.011 1.251,-0.031c0.417,-0.02 0.834,-0.051 1.249,-0.092c0.416,-0.041 0.83,-0.092 1.243,-0.153c0.413,-0.062 0.824,-0.133 1.233,-0.214c0.41,-0.082 0.817,-0.173 1.222,-0.275c0.405,-0.101 0.807,-0.213 1.207,-0.334c0.399,-0.121 0.795,-0.252 1.188,-0.392c0.394,-0.141 0.783,-0.291 1.169,-0.451c0.386,-0.16 0.767,-0.329 1.145,-0.508c0.377,-0.178 0.749,-0.365 1.118,-0.562c0.368,-0.197 0.731,-0.403 1.089,-0.617c0.358,-0.215 0.711,-0.439 1.058,-0.671c0.347,-0.231 0.688,-0.472 1.024,-0.72c0.335,-0.249 0.664,-0.506 0.987,-0.771c0.322,-0.264 0.638,-0.537 0.947,-0.817c0.31,-0.281 0.612,-0.569 0.907,-0.864c0.296,-0.295 0.583,-0.597 0.864,-0.906c0.28,-0.31 0.553,-0.626 0.818,-0.949c0.264,-0.322 0.521,-0.651 0.77,-0.986c0.249,-0.336 0.489,-0.677 0.721,-1.024c0.232,-0.347 0.455,-0.7 0.669,-1.058c0.215,-0.358 0.421,-0.721 0.618,-1.089c0.19667,-0.36867 0.38433,-0.74167 0.563,-1.119c0.178,-0.377 0.347,-0.759 0.507,-1.144c0.16,-0.386 0.31,-0.775 0.45,-1.168c0.141,-0.394 0.272,-0.79 0.393,-1.19c0.122,-0.399 0.233,-0.801 0.334,-1.206c0.102,-0.405 0.193,-0.813 0.275,-1.222c0.081,-0.409 0.152,-0.82 0.214,-1.233c0.061,-0.413 0.112,-0.828 0.153,-1.244c0.041,-0.415 0.072,-0.83 0.092,-1.247c0.021,-0.418 0.031,-0.835 0.031,-1.252v-55.88206h0.224c0.418,0 0.835,-0.01 1.252,-0.031c0.417,-0.02 0.833,-0.051 1.248,-0.092c0.416,-0.041 0.83,-0.092 1.243,-0.153c0.413,-0.061 0.824,-0.133 1.233,-0.214c0.41,-0.082 0.817,-0.173 1.222,-0.274c0.405,-0.102 0.807,-0.213 1.207,-0.334c0.399,-0.121 0.795,-0.252 1.188,-0.393c0.394,-0.141 0.783,-0.291 1.169,-0.451c0.386,-0.159 0.767,-0.329 1.144,-0.507c0.378,-0.179 0.751,-0.366 1.119,-0.563c0.368,-0.197 0.731,-0.403 1.089,-0.617c0.359,-0.215 0.711,-0.438 1.058,-0.67c0.347,-0.232 0.688,-0.472 1.024,-0.721c0.335,-0.249 0.664,-0.505 0.987,-0.77c0.322,-0.265 0.638,-0.538 0.948,-0.818c0.309,-0.28 0.611,-0.568 0.907,-0.863c0.295,-0.295 0.583,-0.598 0.863,-0.907c0.28,-0.309 0.553,-0.625 0.818,-0.948c0.265,-0.323 0.521,-0.652 0.77,-0.987c0.249,-0.336 0.489,-0.677 0.721,-1.024c0.232,-0.347 0.455,-0.7 0.67,-1.058c0.215,-0.358 0.42,-0.721 0.617,-1.089c0.197,-0.368 0.385,-0.741 0.563,-1.119c0.178,-0.377 0.347,-0.758 0.507,-1.144c0.16,-0.386 0.31,-0.775 0.451,-1.167c0.141,-0.394 0.272,-0.791 0.393,-1.19c0.121,-0.4 0.232,-0.802 0.334,-1.207c0.101,-0.405 0.192,-0.812 0.274,-1.221c0.081,-0.409 0.153,-0.821 0.214,-1.234c0.061,-0.413 0.112,-0.828 0.153,-1.243c0.041,-0.415 0.072,-0.831 0.092,-1.248c0.021,-0.417 0.031,-0.835 0.031,-1.252v-18.16002c0,-0.418 -0.01,-0.835 -0.031,-1.251c-0.02,-0.418 -0.051,-0.834 -0.092,-1.25c-0.041,-0.415 -0.092,-0.829 -0.153,-1.242c-0.061,-0.413 -0.133,-0.824 -0.214,-1.234c-0.081,-0.409 -0.173,-0.817 -0.274,-1.221c-0.102,-0.405 -0.213,-0.808 -0.334,-1.207c-0.121,-0.399 -0.252,-0.796 -0.393,-1.189c-0.141,-0.393 -0.291,-0.782 -0.45,-1.167c-0.16,-0.387 -0.33,-0.769 -0.508,-1.146c-0.179,-0.377 -0.366,-0.75 -0.563,-1.118c-0.197,-0.368 -0.403,-0.731 -0.617,-1.089c-0.215,-0.359 -0.438,-0.711 -0.67,-1.059c-0.232,-0.347 -0.472,-0.688 -0.721,-1.023c-0.249,-0.335 -0.505,-0.664 -0.77,-0.987c-0.265,-0.323 -0.538,-0.639 -0.818,-0.948c-0.28,-0.309 -0.568,-0.612 -0.863,-0.907c-0.296,-0.295 -0.598,-0.583 -0.907,-0.863c-0.31,-0.28 -0.626,-0.553 -0.948,-0.818c-0.323,-0.265 -0.652,-0.522 -0.988,-0.771c-0.335,-0.248 -0.676,-0.488 -1.023,-0.72c-0.347,-0.232 -0.7,-0.455 -1.058,-0.67c-0.358,-0.215 -0.721,-0.42 -1.089,-0.617c-0.368,-0.197 -0.741,-0.385 -1.118,-0.563c-0.378,-0.179 -0.76,-0.348 -1.145,-0.508c-0.386,-0.159 -0.775,-0.309 -1.168,-0.45c-0.394,-0.141 -0.79,-0.272 -1.189,-0.393c-0.399,-0.121 -0.802,-0.232 -1.207,-0.334c-0.405,-0.101 -0.812,-0.193 -1.222,-0.274c-0.409,-0.082 -0.82,-0.153 -1.233,-0.214c-0.413,-0.061 -0.827,-0.112 -1.242,-0.153c-0.416,-0.041 -0.833,-0.072 -1.25,-0.093c-0.416,-0.02 -0.833,-0.03 -1.251,-0.03h-73.45008c-0.418,0 -0.835,0.01 -1.252,0.031c-0.417,0.02 -0.833,0.051 -1.249,0.092c-0.415,0.04 -0.829,0.092 -1.242,0.153c-0.413,0.061 -0.824,0.132 -1.233,0.214c-0.41,0.081 -0.817,0.173 -1.222,0.274c-0.405,0.102 -0.808,0.213 -1.208,0.334c-0.399,0.121 -0.795,0.252 -1.188,0.393c-0.393,0.141 -0.782,0.291 -1.168,0.451c-0.385,0.159 -0.767,0.328 -1.144,0.507c-0.378,0.178 -0.751,0.366 -1.119,0.563c-0.368,0.197 -0.731,0.402 -1.089,0.617c-0.358,0.214 -0.711,0.438 -1.058,0.67c-0.347,0.232 -0.689,0.472 -1.024,0.721c-0.335,0.248 -0.664,0.505 -0.987,0.77c-0.322,0.265 -0.638,0.537 -0.948,0.818c-0.309,0.28 -0.611,0.568 -0.906,0.863c-0.296,0.29533 -0.58433,0.598 -0.865,0.908c-0.279,0.308 -0.552,0.624 -0.816,0.946c-0.266,0.324 -0.522,0.653 -0.771,0.988c-0.249,0.335 -0.489,0.676 -0.721,1.023c-0.232,0.348 -0.455,0.7 -0.67,1.058c-0.215,0.359 -0.42,0.722 -0.617,1.09c-0.19667,0.368 -0.38433,0.74067 -0.563,1.118c-0.178,0.378 -0.348,0.759 -0.507,1.145c-0.16,0.386 -0.31,0.775 -0.451,1.168c-0.141,0.393 -0.271,0.789 -0.393,1.189c-0.121,0.399 -0.232,0.802 -0.334,1.207c-0.101,0.405 -0.192,0.812 -0.274,1.221c-0.081,0.409 -0.153,0.821 -0.214,1.234c-0.061,0.413 -0.112,0.827 -0.153,1.242c-0.041,0.416 -0.072,0.832 -0.092,1.25c-0.021,0.416 -0.031,0.833 -0.031,1.251v18.16002c0,0.418 0.01,0.835 0.031,1.252c0.02,0.417 0.051,0.833 0.092,1.249c0.041,0.415 0.092,0.829 0.153,1.241c0.061,0.414 0.133,0.826 0.214,1.235c0.082,0.409 0.173,0.816 0.274,1.221c0.102,0.405 0.213,0.807 0.334,1.207c0.122,0.4 0.253,0.796 0.393,1.189c0.141,0.393 0.291,0.782 0.451,1.168c0.159,0.386 0.328,0.767 0.507,1.144c0.179,0.378 0.366,0.751 0.563,1.119c0.197,0.368 0.402,0.731 0.617,1.089c0.215,0.358 0.438,0.711 0.67,1.058c0.232,0.347 0.472,0.688 0.72,1.023c0.249,0.336 0.506,0.665 0.771,0.987c0.265,0.324 0.538,0.64 0.818,0.949c0.28,0.309 0.568,0.612 0.864,0.907c0.295,0.295 0.597,0.583 0.906,0.863c0.31,0.28 0.626,0.553 0.948,0.818c0.323,0.265 0.652,0.521 0.987,0.77c0.336,0.249 0.677,0.489 1.024,0.721c0.347,0.232 0.7,0.455 1.058,0.67c0.358,0.214 0.721,0.42 1.089,0.617c0.368,0.197 0.741,0.384 1.118,0.563c0.378,0.178 0.76,0.348 1.145,0.507c0.386,0.16 0.775,0.31 1.168,0.451c0.394,0.141 0.79,0.272 1.189,0.393c0.4,0.121 0.802,0.232 1.207,0.334c0.405,0.101 0.812,0.192 1.221,0.274c0.41,0.081 0.821,0.153 1.234,0.214c0.413,0.061 0.827,0.112 1.242,0.153c0.416,0.041 0.832,0.072 1.249,0.092c0.417,0.021 0.834,0.031 1.252,0.031h0.298zM245.93997,252.36279c-0.015,-0.297 -0.022,-0.594 -0.022,-0.891v-59.55407c0,-0.121 -0.006,-0.241 -0.018,-0.36c-0.012,-0.12 -0.029,-0.239 -0.053,-0.357c-0.023,-0.118 -0.052,-0.234 -0.087,-0.349c-0.035,-0.116 -0.076,-0.229 -0.122,-0.34c-0.046,-0.111 -0.097,-0.22 -0.154,-0.326c-0.057,-0.106 -0.118,-0.209 -0.185,-0.309c-0.067,-0.1 -0.139,-0.196 -0.215,-0.289c-0.076,-0.093 -0.157,-0.182 -0.242,-0.267c-0.085,-0.085 -0.174,-0.166 -0.267,-0.242c-0.093,-0.077 -0.189,-0.148 -0.289,-0.215c-0.1,-0.067 -0.203,-0.129 -0.31,-0.185c-0.106,-0.057 -0.214,-0.108 -0.325,-0.154c-0.111,-0.046 -0.225,-0.087 -0.34,-0.122c-0.115,-0.035 -0.231,-0.064 -0.349,-0.087c-0.118,-0.024 -0.237,-0.041 -0.357,-0.053c-0.119,-0.012 -0.239,-0.018 -0.36,-0.018h-3.97c-0.297,0 -0.594,-0.007 -0.891,-0.022c-0.29733,-0.01467 -0.59367,-0.03633 -0.889,-0.065c-0.296,-0.029 -0.591,-0.066 -0.885,-0.11c-0.294,-0.043 -0.587,-0.094 -0.878,-0.152c-0.292,-0.058 -0.582,-0.123 -0.87,-0.195c-0.289,-0.073 -0.575,-0.152 -0.86,-0.238c-0.284,-0.086 -0.566,-0.18 -0.846,-0.28c-0.28,-0.1 -0.557,-0.207 -0.832,-0.32c-0.275,-0.114 -0.546,-0.235 -0.815,-0.362c-0.269,-0.127 -0.534,-0.26 -0.796,-0.401c-0.26267,-0.14 -0.52133,-0.28633 -0.776,-0.439c-0.255,-0.153 -0.506,-0.312 -0.754,-0.477c-0.247,-0.165 -0.49,-0.336 -0.728,-0.513c-0.239,-0.178 -0.473,-0.36 -0.703,-0.549c-0.23,-0.189 -0.455,-0.383 -0.675,-0.582c-0.22,-0.2 -0.436,-0.405 -0.646,-0.616c-0.21,-0.209 -0.415,-0.424 -0.615,-0.645c-0.2,-0.22 -0.393,-0.445 -0.582,-0.674c-0.188,-0.23 -0.371,-0.465 -0.548,-0.703c-0.177,-0.239 -0.348,-0.482 -0.514,-0.729c-0.165,-0.248 -0.324,-0.499 -0.477,-0.754c-0.153,-0.255 -0.299,-0.513 -0.439,-0.775c-0.14,-0.263 -0.274,-0.528 -0.401,-0.796c-0.127,-0.269 -0.248,-0.541 -0.361,-0.816c-0.114,-0.275 -0.221,-0.552 -0.321,-0.832c-0.101,-0.28 -0.194,-0.562 -0.28,-0.846c-0.086,-0.284 -0.165,-0.571 -0.238,-0.859c-0.072,-0.289 -0.137,-0.579 -0.195,-0.871c-0.058,-0.291 -0.109,-0.584 -0.152,-0.877c-0.044,-0.294 -0.08,-0.59 -0.11,-0.886c-0.029,-0.295 -0.051,-0.592 -0.065,-0.889c-0.015,-0.297 -0.022,-0.594 -0.022,-0.891v-18.16002c0,-0.297 0.007,-0.595 0.022,-0.892c0.014,-0.297 0.036,-0.593 0.065,-0.888c0.03,-0.297 0.066,-0.592 0.11,-0.885c0.043,-0.294 0.094,-0.587 0.152,-0.879c0.058,-0.292 0.123,-0.582 0.195,-0.87c0.073,-0.288 0.152,-0.575 0.238,-0.859c0.086,-0.284 0.18,-0.566 0.28,-0.847c0.1,-0.279 0.207,-0.557 0.321,-0.831c0.114,-0.275 0.234,-0.547 0.361,-0.815c0.127,-0.269 0.261,-0.535 0.401,-0.797c0.14,-0.262 0.286,-0.52 0.439,-0.775c0.153,-0.255 0.312,-0.507 0.477,-0.753c0.165,-0.248 0.336,-0.491 0.513,-0.729c0.178,-0.239 0.36,-0.473 0.548,-0.703c0.189,-0.23 0.384,-0.455 0.584,-0.676c0.199,-0.22 0.404,-0.435 0.614,-0.645c0.21,-0.21 0.425,-0.415 0.646,-0.615c0.22,-0.199 0.445,-0.394 0.675,-0.583c0.23,-0.188 0.464,-0.371 0.703,-0.548c0.239,-0.177 0.481,-0.348 0.728,-0.513c0.247,-0.165 0.499,-0.324 0.754,-0.477c0.255,-0.153 0.513,-0.299 0.776,-0.44c0.262,-0.14 0.527,-0.273 0.796,-0.4c0.268,-0.127 0.54,-0.248 0.815,-0.362c0.275,-0.114 0.552,-0.22 0.832,-0.32c0.28,-0.101 0.562,-0.194 0.847,-0.28c0.284,-0.087 0.57,-0.166 0.859,-0.238c0.288,-0.072 0.578,-0.137 0.869,-0.195c0.292,-0.058 0.585,-0.109 0.879,-0.153c0.294,-0.043 0.589,-0.08 0.885,-0.109c0.295,-0.029 0.592,-0.051 0.889,-0.065c0.297,-0.015 0.594,-0.022 0.891,-0.022h73.45008c0.297,0 0.595,0.007 0.892,0.022c0.296,0.014 0.593,0.036 0.888,0.065c0.296,0.029 0.591,0.066 0.885,0.109c0.294,0.044 0.587,0.095 0.879,0.153c0.291,0.058 0.581,0.123 0.87,0.195c0.288,0.072 0.574,0.152 0.859,0.238c0.284,0.086 0.567,0.179 0.846,0.28c0.28,0.1 0.557,0.207 0.832,0.32c0.275,0.114 0.546,0.234 0.815,0.361c0.269,0.128 0.534,0.261 0.796,0.402c0.263,0.14 0.521,0.286 0.776,0.439c0.255,0.153 0.506,0.312 0.753,0.477c0.248,0.165 0.491,0.336 0.73,0.514c0.238,0.176 0.472,0.359 0.702,0.548c0.23,0.188 0.455,0.382 0.675,0.582c0.221,0.2 0.436,0.405 0.646,0.615c0.21,0.21 0.415,0.425 0.615,0.646c0.199,0.22 0.393,0.445 0.582,0.674c0.189,0.23 0.371,0.465 0.549,0.704c0.177,0.238 0.348,0.481 0.513,0.729c0.165,0.247 0.324,0.498 0.477,0.753c0.153,0.255 0.299,0.513 0.44,0.776c0.139,0.262 0.273,0.527 0.4,0.796c0.127,0.269 0.248,0.54 0.361,0.814c0.114,0.275 0.221,0.553 0.321,0.832c0.1,0.28 0.194,0.562 0.28,0.847c0.086,0.285 0.165,0.571 0.238,0.859c0.072,0.289 0.137,0.578 0.195,0.87c0.058,0.291 0.109,0.584 0.152,0.879c0.044,0.294 0.081,0.589 0.11,0.885c0.029,0.295 0.051,0.591 0.065,0.888c0.015,0.297 0.022,0.594 0.022,0.892v18.16002c0,0.297 -0.007,0.594 -0.022,0.891c-0.014,0.297 -0.036,0.594 -0.066,0.89c-0.028,0.296 -0.065,0.59 -0.109,0.884c-0.043,0.294 -0.094,0.587 -0.152,0.878c-0.058,0.292 -0.123,0.582 -0.195,0.871c-0.073,0.288 -0.152,0.574 -0.238,0.859c-0.086,0.284 -0.179,0.566 -0.279,0.846c-0.101,0.28 -0.208,0.557 -0.321,0.832c-0.114,0.275 -0.235,0.546 -0.362,0.816c-0.127,0.268 -0.261,0.533 -0.401,0.796c-0.14,0.262 -0.286,0.52 -0.439,0.775c-0.153,0.255 -0.312,0.506 -0.477,0.754c-0.165,0.247 -0.336,0.49 -0.513,0.728c-0.178,0.239 -0.36,0.473 -0.549,0.703c-0.188,0.23 -0.383,0.455 -0.582,0.675c-0.2,0.221 -0.405,0.436 -0.615,0.646c-0.21,0.21 -0.426,0.415 -0.646,0.615c-0.22,0.199 -0.445,0.393 -0.675,0.582c-0.23,0.189 -0.464,0.371 -0.702,0.548c-0.239,0.177 -0.482,0.349 -0.73,0.514c-0.247,0.165 -0.498,0.324 -0.753,0.477c-0.255,0.153 -0.513,0.299 -0.775,0.439c-0.263,0.141 -0.528,0.274 -0.796,0.401c-0.269,0.127 -0.541,0.248 -0.816,0.361c-0.275,0.114 -0.552,0.221 -0.831,0.321c-0.28,0.1 -0.563,0.194 -0.847,0.28c-0.285,0.086 -0.571,0.165 -0.859,0.238c-0.28867,0.072 -0.57867,0.137 -0.87,0.195c-0.292,0.058 -0.585,0.109 -0.879,0.153c-0.294,0.043 -0.589,0.079 -0.884,0.109c-0.296,0.029 -0.593,0.051 -0.89,0.065c-0.297,0.015 -0.594,0.022 -0.891,0.022h-3.897c-0.12,0 -0.24,0.006 -0.36,0.018c-0.119,0.012 -0.238,0.029 -0.356,0.053c-0.118,0.023 -0.235,0.052 -0.35,0.087c-0.115,0.035 -0.228,0.076 -0.339,0.122c-0.111,0.046 -0.22,0.097 -0.326,0.154c-0.106,0.056 -0.209,0.118 -0.309,0.185c-0.1,0.067 -0.197,0.138 -0.29,0.215c-0.093,0.076 -0.182,0.157 -0.267,0.242c-0.085,0.085 -0.165,0.174 -0.242,0.267c-0.076,0.093 -0.147,0.189 -0.214,0.289c-0.067,0.1 -0.129,0.203 -0.186,0.309c-0.056,0.106 -0.108,0.215 -0.154,0.326c-0.046,0.111 -0.086,0.224 -0.121,0.34c-0.035,0.115 -0.064,0.231 -0.088,0.349c-0.023,0.118 -0.041,0.237 -0.053,0.357c-0.011,0.119 -0.017,0.239 -0.017,0.36v59.55407c0,0.297 -0.008,0.594 -0.022,0.891c-0.015,0.297 -0.036,0.593 -0.066,0.89c-0.029,0.295 -0.065,0.59 -0.109,0.884c-0.043,0.294 -0.094,0.587 -0.152,0.879c-0.058,0.291 -0.123,0.581 -0.196,0.869c-0.072,0.289 -0.151,0.575 -0.237,0.859c-0.08667,0.28467 -0.18,0.56667 -0.28,0.846c-0.1,0.281 -0.207,0.558 -0.321,0.833c-0.114,0.274 -0.234,0.546 -0.361,0.815c-0.127,0.269 -0.261,0.534 -0.401,0.796c-0.14,0.262 -0.286,0.521 -0.439,0.775c-0.153,0.256 -0.312,0.507 -0.477,0.754c-0.166,0.247 -0.337,0.49 -0.514,0.729c-0.177,0.239 -0.36,0.473 -0.549,0.703c-0.188,0.23 -0.382,0.455 -0.581,0.675c-0.2,0.22 -0.405,0.435 -0.615,0.646c-0.211,0.21 -0.426,0.415 -0.646,0.614c-0.22,0.2 -0.445,0.394 -0.675,0.583c-0.23,0.188 -0.464,0.371 -0.703,0.548c-0.239,0.177 -0.482,0.348 -0.729,0.514c-0.24733,0.16467 -0.49833,0.32333 -0.753,0.476c-0.255,0.153 -0.514,0.3 -0.776,0.44c-0.262,0.14 -0.527,0.274 -0.797,0.401c-0.268,0.127 -0.54,0.247 -0.814,0.361c-0.275,0.114 -0.552,0.221 -0.832,0.321c-0.28,0.1 -0.562,0.193 -0.846,0.28c-0.285,0.086 -0.571,0.165 -0.86,0.237c-0.288,0.073 -0.578,0.138 -0.869,0.196c-0.292,0.058 -0.585,0.108 -0.879,0.152c-0.294,0.044 -0.589,0.08 -0.885,0.109c-0.296,0.029 -0.592,0.051 -0.888,0.066c-0.297,0.014 -0.595,0.022 -0.892,0.022h-21.91002c-0.298,0 -0.595,-0.008 -0.891,-0.022c-0.297,-0.015 -0.594,-0.037 -0.89,-0.066c-0.296,-0.029 -0.59,-0.065 -0.884,-0.109c-0.295,-0.044 -0.587,-0.094 -0.878,-0.152c-0.292,-0.058 -0.582,-0.123 -0.871,-0.196c-0.288,-0.072 -0.575,-0.151 -0.859,-0.237c-0.285,-0.087 -0.567,-0.18 -0.847,-0.28c-0.28,-0.1 -0.557,-0.207 -0.831,-0.321c-0.275,-0.114 -0.547,-0.234 -0.816,-0.361c-0.268,-0.127 -0.534,-0.261 -0.795,-0.401c-0.263,-0.14 -0.521,-0.287 -0.777,-0.44c-0.255,-0.153 -0.506,-0.311 -0.753,-0.477c-0.247,-0.165 -0.49,-0.336 -0.729,-0.513c-0.238,-0.177 -0.473,-0.36 -0.702,-0.548c-0.23,-0.189 -0.455,-0.383 -0.675,-0.582c-0.221,-0.2 -0.436,-0.405 -0.646,-0.615c-0.21,-0.211 -0.415,-0.426 -0.615,-0.646c-0.2,-0.22 -0.394,-0.445 -0.582,-0.675c-0.189,-0.23 -0.372,-0.464 -0.549,-0.703c-0.177,-0.239 -0.348,-0.482 -0.513,-0.729c-0.16533,-0.24733 -0.32433,-0.49833 -0.477,-0.753c-0.153,-0.255 -0.299,-0.514 -0.439,-0.776c-0.141,-0.262 -0.274,-0.527 -0.401,-0.796c-0.127,-0.269 -0.248,-0.541 -0.362,-0.815c-0.113,-0.275 -0.22,-0.552 -0.32,-0.832c-0.101,-0.28 -0.194,-0.562 -0.28,-0.847c-0.086,-0.284 -0.166,-0.57 -0.238,-0.859c-0.072,-0.288 -0.137,-0.578 -0.195,-0.87c-0.058,-0.291 -0.109,-0.584 -0.153,-0.878c-0.04333,-0.294 -0.07967,-0.589 -0.109,-0.885c-0.029,-0.296 -0.051,-0.592 -0.065,-0.889z"></path><path d="M285.99201,251.47179h-21.91002v-81.39109h-25.80703v-18.16002h73.45008v18.16002h-25.73303z"></path></g></g></g></g></svg><svg width="240" height="320" viewBox="0 0 240 320" fill="none" xmlns="http://www.w3.org/2000/svg">
<path d="M228 319.5H12C5.64873 319.5 0.5 314.351 0.5 308V12C0.5 5.64873 5.64873 0.5 12 0.5H159.175C159.571 0.5 159.952 0.656748 160.233 0.936021L239.057 79.2681C239.341 79.5497 239.5 79.9326 239.5 80.3321V308C239.5 314.351 234.351 319.5 228 319.5Z" fill="#000" stroke="#FFC681"/>
<path d="M160.5 1.20711L238.793 79.5H172C165.649 79.5 160.5 74.3513 160.5 68V1.20711Z" fill="#FFF9F2" stroke="#FFC681"/>
<path d="M68.8438 244.072C69.1738 250.699 74.7344 254.914 83.1387 254.914C92.0254 254.914 97.5352 250.496 97.5352 243.387C97.5352 237.826 94.4121 234.729 86.9727 233.027L82.7578 232.062C78.2129 230.996 76.3594 229.549 76.3594 227.035C76.3594 223.861 79.1523 221.779 83.3672 221.779C87.3789 221.779 90.2227 223.836 90.6797 227.111H96.9512C96.6465 220.84 91.0859 216.447 83.3926 216.447C75.1914 216.447 69.7578 220.865 69.7578 227.467C69.7578 232.9 72.8809 236.176 79.5332 237.699L84.2812 238.791C88.9785 239.883 90.9844 241.508 90.9844 244.174C90.9844 247.297 87.8613 249.557 83.5449 249.557C78.8984 249.557 75.6484 247.424 75.2422 244.072H68.8438Z" fill="#FF8C02"/>
<path d="M121.59 254L134.26 217.361H127.278L118.137 246.51H117.705L108.489 217.361H101.252L114.049 254H121.59Z" fill="#FF8C02"/>
<path d="M170.731 239.375V234.805H155.522V239.807H164.333L164.307 240.568C164.206 245.748 160.397 249.227 154.811 249.227C148.286 249.227 144.198 244.047 144.198 235.617C144.198 227.314 148.21 222.135 154.608 222.135C159.305 222.135 162.581 224.471 163.901 228.711H170.426C169.258 221.246 163.063 216.447 154.608 216.447C144.173 216.447 137.495 223.938 137.495 235.668C137.495 247.525 144.096 254.914 154.71 254.914C164.485 254.914 170.731 248.846 170.731 239.375Z" fill="#FF8C02"/>
<path fill-rule="evenodd" clip-rule="evenodd" d="M99 117C96.7909 117 95 118.791 95 121V148.939C94.3386 148.979 93.6717 149 93 149C75.3269 149 61 134.673 61 117C61 99.3269 75.3269 85 93 85C110.673 85 125 99.3269 125 117H99ZM125 117H155C157.209 117 159 118.791 159 121V177C159 179.209 157.209 181 155 181H99C96.7909 181 95 179.209 95 177V148.939C111.741 147.906 125 134.001 125 117Z" fill="#FFC681"/>
</svg>
